<?xml version="1.0" encoding="utf-8" standalone="no"?>
<!DOCTYPE svg PUBLIC "-//W3C//DTD SVG 1.1//EN"
  "http://www.w3.org/Graphics/SVG/1.1/DTD/svg11.dtd">
<svg xmlns:xlink="http://www.w3.org/1999/xlink" width="1152pt" height="504pt" viewBox="0 0 1152 504" xmlns="http://www.w3.org/2000/svg" version="1.1">
 <metadata>
  <rdf:RDF xmlns:dc="http://purl.org/dc/elements/1.1/" xmlns:cc="http://creativecommons.org/ns#" xmlns:rdf="http://www.w3.org/1999/02/22-rdf-syntax-ns#">
   <cc:Work>
    <dc:type rdf:resource="http://purl.org/dc/dcmitype/StillImage"/>
    <dc:date>2024-10-21T22:38:10.823445</dc:date>
    <dc:format>image/svg+xml</dc:format>
    <dc:creator>
     <cc:Agent>
      <dc:title>Matplotlib v3.9.2, https://matplotlib.org/</dc:title>
     </cc:Agent>
    </dc:creator>
   </cc:Work>
  </rdf:RDF>
 </metadata>
 <defs>
  <style type="text/css">*{stroke-linejoin: round; stroke-linecap: butt}</style>
 </defs>
 <g id="figure_1">
  <g id="patch_1">
   <path d="M 0 504 
L 1152 504 
L 1152 0 
L 0 0 
z
" style="fill: #ffffff"/>
  </g>
  <g id="axes_1">
   <g id="patch_2">
    <path d="M 88.580625 440.654375 
L 571.37 440.654375 
L 571.37 40.636875 
L 88.580625 40.636875 
z
" style="fill: #ffffff"/>
   </g>
   <g id="matplotlib.axis_1">
    <g id="xtick_1">
     <g id="line2d_1">
      <defs>
       <path id="m3957e328b5" d="M 0 0 
L 0 3.5 
" style="stroke: #000000; stroke-width: 0.8"/>
      </defs>
      <g>
       <use xlink:href="#m3957e328b5" x="107.579963" y="440.654375" style="stroke: #000000; stroke-width: 0.8"/>
      </g>
     </g>
     <g id="text_1">
      <!-- 0 -->
      <g transform="translate(102.489963 459.811875) scale(0.16 -0.16)">
       <defs>
        <path id="DejaVuSans-30" d="M 2034 4250 
Q 1547 4250 1301 3770 
Q 1056 3291 1056 2328 
Q 1056 1369 1301 889 
Q 1547 409 2034 409 
Q 2525 409 2770 889 
Q 3016 1369 3016 2328 
Q 3016 3291 2770 3770 
Q 2525 4250 2034 4250 
z
M 2034 4750 
Q 2819 4750 3233 4129 
Q 3647 3509 3647 2328 
Q 3647 1150 3233 529 
Q 2819 -91 2034 -91 
Q 1250 -91 836 529 
Q 422 1150 422 2328 
Q 422 3509 836 4129 
Q 1250 4750 2034 4750 
z
" transform="scale(0.015625)"/>
       </defs>
       <use xlink:href="#DejaVuSans-30"/>
      </g>
     </g>
    </g>
    <g id="xtick_2">
     <g id="line2d_2">
      <g>
       <use xlink:href="#m3957e328b5" x="166.492638" y="440.654375" style="stroke: #000000; stroke-width: 0.8"/>
      </g>
     </g>
     <g id="text_2">
      <!-- 20 -->
      <g transform="translate(156.312638 459.811875) scale(0.16 -0.16)">
       <defs>
        <path id="DejaVuSans-32" d="M 1228 531 
L 3431 531 
L 3431 0 
L 469 0 
L 469 531 
Q 828 903 1448 1529 
Q 2069 2156 2228 2338 
Q 2531 2678 2651 2914 
Q 2772 3150 2772 3378 
Q 2772 3750 2511 3984 
Q 2250 4219 1831 4219 
Q 1534 4219 1204 4116 
Q 875 4013 500 3803 
L 500 4441 
Q 881 4594 1212 4672 
Q 1544 4750 1819 4750 
Q 2544 4750 2975 4387 
Q 3406 4025 3406 3419 
Q 3406 3131 3298 2873 
Q 3191 2616 2906 2266 
Q 2828 2175 2409 1742 
Q 1991 1309 1228 531 
z
" transform="scale(0.015625)"/>
       </defs>
       <use xlink:href="#DejaVuSans-32"/>
       <use xlink:href="#DejaVuSans-30" x="63.623047"/>
      </g>
     </g>
    </g>
    <g id="xtick_3">
     <g id="line2d_3">
      <g>
       <use xlink:href="#m3957e328b5" x="225.405314" y="440.654375" style="stroke: #000000; stroke-width: 0.8"/>
      </g>
     </g>
     <g id="text_3">
      <!-- 40 -->
      <g transform="translate(215.225314 459.811875) scale(0.16 -0.16)">
       <defs>
        <path id="DejaVuSans-34" d="M 2419 4116 
L 825 1625 
L 2419 1625 
L 2419 4116 
z
M 2253 4666 
L 3047 4666 
L 3047 1625 
L 3713 1625 
L 3713 1100 
L 3047 1100 
L 3047 0 
L 2419 0 
L 2419 1100 
L 313 1100 
L 313 1709 
L 2253 4666 
z
" transform="scale(0.015625)"/>
       </defs>
       <use xlink:href="#DejaVuSans-34"/>
       <use xlink:href="#DejaVuSans-30" x="63.623047"/>
      </g>
     </g>
    </g>
    <g id="xtick_4">
     <g id="line2d_4">
      <g>
       <use xlink:href="#m3957e328b5" x="284.317989" y="440.654375" style="stroke: #000000; stroke-width: 0.8"/>
      </g>
     </g>
     <g id="text_4">
      <!-- 60 -->
      <g transform="translate(274.137989 459.811875) scale(0.16 -0.16)">
       <defs>
        <path id="DejaVuSans-36" d="M 2113 2584 
Q 1688 2584 1439 2293 
Q 1191 2003 1191 1497 
Q 1191 994 1439 701 
Q 1688 409 2113 409 
Q 2538 409 2786 701 
Q 3034 994 3034 1497 
Q 3034 2003 2786 2293 
Q 2538 2584 2113 2584 
z
M 3366 4563 
L 3366 3988 
Q 3128 4100 2886 4159 
Q 2644 4219 2406 4219 
Q 1781 4219 1451 3797 
Q 1122 3375 1075 2522 
Q 1259 2794 1537 2939 
Q 1816 3084 2150 3084 
Q 2853 3084 3261 2657 
Q 3669 2231 3669 1497 
Q 3669 778 3244 343 
Q 2819 -91 2113 -91 
Q 1303 -91 875 529 
Q 447 1150 447 2328 
Q 447 3434 972 4092 
Q 1497 4750 2381 4750 
Q 2619 4750 2861 4703 
Q 3103 4656 3366 4563 
z
" transform="scale(0.015625)"/>
       </defs>
       <use xlink:href="#DejaVuSans-36"/>
       <use xlink:href="#DejaVuSans-30" x="63.623047"/>
      </g>
     </g>
    </g>
    <g id="xtick_5">
     <g id="line2d_5">
      <g>
       <use xlink:href="#m3957e328b5" x="343.230664" y="440.654375" style="stroke: #000000; stroke-width: 0.8"/>
      </g>
     </g>
     <g id="text_5">
      <!-- 80 -->
      <g transform="translate(333.050664 459.811875) scale(0.16 -0.16)">
       <defs>
        <path id="DejaVuSans-38" d="M 2034 2216 
Q 1584 2216 1326 1975 
Q 1069 1734 1069 1313 
Q 1069 891 1326 650 
Q 1584 409 2034 409 
Q 2484 409 2743 651 
Q 3003 894 3003 1313 
Q 3003 1734 2745 1975 
Q 2488 2216 2034 2216 
z
M 1403 2484 
Q 997 2584 770 2862 
Q 544 3141 544 3541 
Q 544 4100 942 4425 
Q 1341 4750 2034 4750 
Q 2731 4750 3128 4425 
Q 3525 4100 3525 3541 
Q 3525 3141 3298 2862 
Q 3072 2584 2669 2484 
Q 3125 2378 3379 2068 
Q 3634 1759 3634 1313 
Q 3634 634 3220 271 
Q 2806 -91 2034 -91 
Q 1263 -91 848 271 
Q 434 634 434 1313 
Q 434 1759 690 2068 
Q 947 2378 1403 2484 
z
M 1172 3481 
Q 1172 3119 1398 2916 
Q 1625 2713 2034 2713 
Q 2441 2713 2670 2916 
Q 2900 3119 2900 3481 
Q 2900 3844 2670 4047 
Q 2441 4250 2034 4250 
Q 1625 4250 1398 4047 
Q 1172 3844 1172 3481 
z
" transform="scale(0.015625)"/>
       </defs>
       <use xlink:href="#DejaVuSans-38"/>
       <use xlink:href="#DejaVuSans-30" x="63.623047"/>
      </g>
     </g>
    </g>
    <g id="xtick_6">
     <g id="line2d_6">
      <g>
       <use xlink:href="#m3957e328b5" x="402.14334" y="440.654375" style="stroke: #000000; stroke-width: 0.8"/>
      </g>
     </g>
     <g id="text_6">
      <!-- 100 -->
      <g transform="translate(386.87334 459.811875) scale(0.16 -0.16)">
       <defs>
        <path id="DejaVuSans-31" d="M 794 531 
L 1825 531 
L 1825 4091 
L 703 3866 
L 703 4441 
L 1819 4666 
L 2450 4666 
L 2450 531 
L 3481 531 
L 3481 0 
L 794 0 
L 794 531 
z
" transform="scale(0.015625)"/>
       </defs>
       <use xlink:href="#DejaVuSans-31"/>
       <use xlink:href="#DejaVuSans-30" x="63.623047"/>
       <use xlink:href="#DejaVuSans-30" x="127.246094"/>
      </g>
     </g>
    </g>
    <g id="xtick_7">
     <g id="line2d_7">
      <g>
       <use xlink:href="#m3957e328b5" x="461.056015" y="440.654375" style="stroke: #000000; stroke-width: 0.8"/>
      </g>
     </g>
     <g id="text_7">
      <!-- 120 -->
      <g transform="translate(445.786015 459.811875) scale(0.16 -0.16)">
       <use xlink:href="#DejaVuSans-31"/>
       <use xlink:href="#DejaVuSans-32" x="63.623047"/>
       <use xlink:href="#DejaVuSans-30" x="127.246094"/>
      </g>
     </g>
    </g>
    <g id="xtick_8">
     <g id="line2d_8">
      <g>
       <use xlink:href="#m3957e328b5" x="519.968691" y="440.654375" style="stroke: #000000; stroke-width: 0.8"/>
      </g>
     </g>
     <g id="text_8">
      <!-- 140 -->
      <g transform="translate(504.698691 459.811875) scale(0.16 -0.16)">
       <use xlink:href="#DejaVuSans-31"/>
       <use xlink:href="#DejaVuSans-34" x="63.623047"/>
       <use xlink:href="#DejaVuSans-30" x="127.246094"/>
      </g>
     </g>
    </g>
    <g id="text_9">
     <!-- Epoch -->
     <g transform="translate(302.415625 480.816563) scale(0.18 -0.18)">
      <defs>
       <path id="DejaVuSans-45" d="M 628 4666 
L 3578 4666 
L 3578 4134 
L 1259 4134 
L 1259 2753 
L 3481 2753 
L 3481 2222 
L 1259 2222 
L 1259 531 
L 3634 531 
L 3634 0 
L 628 0 
L 628 4666 
z
" transform="scale(0.015625)"/>
       <path id="DejaVuSans-70" d="M 1159 525 
L 1159 -1331 
L 581 -1331 
L 581 3500 
L 1159 3500 
L 1159 2969 
Q 1341 3281 1617 3432 
Q 1894 3584 2278 3584 
Q 2916 3584 3314 3078 
Q 3713 2572 3713 1747 
Q 3713 922 3314 415 
Q 2916 -91 2278 -91 
Q 1894 -91 1617 61 
Q 1341 213 1159 525 
z
M 3116 1747 
Q 3116 2381 2855 2742 
Q 2594 3103 2138 3103 
Q 1681 3103 1420 2742 
Q 1159 2381 1159 1747 
Q 1159 1113 1420 752 
Q 1681 391 2138 391 
Q 2594 391 2855 752 
Q 3116 1113 3116 1747 
z
" transform="scale(0.015625)"/>
       <path id="DejaVuSans-6f" d="M 1959 3097 
Q 1497 3097 1228 2736 
Q 959 2375 959 1747 
Q 959 1119 1226 758 
Q 1494 397 1959 397 
Q 2419 397 2687 759 
Q 2956 1122 2956 1747 
Q 2956 2369 2687 2733 
Q 2419 3097 1959 3097 
z
M 1959 3584 
Q 2709 3584 3137 3096 
Q 3566 2609 3566 1747 
Q 3566 888 3137 398 
Q 2709 -91 1959 -91 
Q 1206 -91 779 398 
Q 353 888 353 1747 
Q 353 2609 779 3096 
Q 1206 3584 1959 3584 
z
" transform="scale(0.015625)"/>
       <path id="DejaVuSans-63" d="M 3122 3366 
L 3122 2828 
Q 2878 2963 2633 3030 
Q 2388 3097 2138 3097 
Q 1578 3097 1268 2742 
Q 959 2388 959 1747 
Q 959 1106 1268 751 
Q 1578 397 2138 397 
Q 2388 397 2633 464 
Q 2878 531 3122 666 
L 3122 134 
Q 2881 22 2623 -34 
Q 2366 -91 2075 -91 
Q 1284 -91 818 406 
Q 353 903 353 1747 
Q 353 2603 823 3093 
Q 1294 3584 2113 3584 
Q 2378 3584 2631 3529 
Q 2884 3475 3122 3366 
z
" transform="scale(0.015625)"/>
       <path id="DejaVuSans-68" d="M 3513 2113 
L 3513 0 
L 2938 0 
L 2938 2094 
Q 2938 2591 2744 2837 
Q 2550 3084 2163 3084 
Q 1697 3084 1428 2787 
Q 1159 2491 1159 1978 
L 1159 0 
L 581 0 
L 581 4863 
L 1159 4863 
L 1159 2956 
Q 1366 3272 1645 3428 
Q 1925 3584 2291 3584 
Q 2894 3584 3203 3211 
Q 3513 2838 3513 2113 
z
" transform="scale(0.015625)"/>
      </defs>
      <use xlink:href="#DejaVuSans-45"/>
      <use xlink:href="#DejaVuSans-70" x="63.183594"/>
      <use xlink:href="#DejaVuSans-6f" x="126.660156"/>
      <use xlink:href="#DejaVuSans-63" x="187.841797"/>
      <use xlink:href="#DejaVuSans-68" x="242.822266"/>
     </g>
    </g>
   </g>
   <g id="matplotlib.axis_2">
    <g id="ytick_1">
     <g id="line2d_9">
      <defs>
       <path id="ma83bf9f5d5" d="M 0 0 
L -3.5 0 
" style="stroke: #000000; stroke-width: 0.8"/>
      </defs>
      <g>
       <use xlink:href="#ma83bf9f5d5" x="88.580625" y="399.3598" style="stroke: #000000; stroke-width: 0.8"/>
      </g>
     </g>
     <g id="text_10">
      <!-- 3000 -->
      <g transform="translate(40.860625 405.43855) scale(0.16 -0.16)">
       <defs>
        <path id="DejaVuSans-33" d="M 2597 2516 
Q 3050 2419 3304 2112 
Q 3559 1806 3559 1356 
Q 3559 666 3084 287 
Q 2609 -91 1734 -91 
Q 1441 -91 1130 -33 
Q 819 25 488 141 
L 488 750 
Q 750 597 1062 519 
Q 1375 441 1716 441 
Q 2309 441 2620 675 
Q 2931 909 2931 1356 
Q 2931 1769 2642 2001 
Q 2353 2234 1838 2234 
L 1294 2234 
L 1294 2753 
L 1863 2753 
Q 2328 2753 2575 2939 
Q 2822 3125 2822 3475 
Q 2822 3834 2567 4026 
Q 2313 4219 1838 4219 
Q 1578 4219 1281 4162 
Q 984 4106 628 3988 
L 628 4550 
Q 988 4650 1302 4700 
Q 1616 4750 1894 4750 
Q 2613 4750 3031 4423 
Q 3450 4097 3450 3541 
Q 3450 3153 3228 2886 
Q 3006 2619 2597 2516 
z
" transform="scale(0.015625)"/>
       </defs>
       <use xlink:href="#DejaVuSans-33"/>
       <use xlink:href="#DejaVuSans-30" x="63.623047"/>
       <use xlink:href="#DejaVuSans-30" x="127.246094"/>
       <use xlink:href="#DejaVuSans-30" x="190.869141"/>
      </g>
     </g>
    </g>
    <g id="ytick_2">
     <g id="line2d_10">
      <g>
       <use xlink:href="#ma83bf9f5d5" x="88.580625" y="354.219249" style="stroke: #000000; stroke-width: 0.8"/>
      </g>
     </g>
     <g id="text_11">
      <!-- 3500 -->
      <g transform="translate(40.860625 360.297999) scale(0.16 -0.16)">
       <defs>
        <path id="DejaVuSans-35" d="M 691 4666 
L 3169 4666 
L 3169 4134 
L 1269 4134 
L 1269 2991 
Q 1406 3038 1543 3061 
Q 1681 3084 1819 3084 
Q 2600 3084 3056 2656 
Q 3513 2228 3513 1497 
Q 3513 744 3044 326 
Q 2575 -91 1722 -91 
Q 1428 -91 1123 -41 
Q 819 9 494 109 
L 494 744 
Q 775 591 1075 516 
Q 1375 441 1709 441 
Q 2250 441 2565 725 
Q 2881 1009 2881 1497 
Q 2881 1984 2565 2268 
Q 2250 2553 1709 2553 
Q 1456 2553 1204 2497 
Q 953 2441 691 2322 
L 691 4666 
z
" transform="scale(0.015625)"/>
       </defs>
       <use xlink:href="#DejaVuSans-33"/>
       <use xlink:href="#DejaVuSans-35" x="63.623047"/>
       <use xlink:href="#DejaVuSans-30" x="127.246094"/>
       <use xlink:href="#DejaVuSans-30" x="190.869141"/>
      </g>
     </g>
    </g>
    <g id="ytick_3">
     <g id="line2d_11">
      <g>
       <use xlink:href="#ma83bf9f5d5" x="88.580625" y="309.078699" style="stroke: #000000; stroke-width: 0.8"/>
      </g>
     </g>
     <g id="text_12">
      <!-- 4000 -->
      <g transform="translate(40.860625 315.157449) scale(0.16 -0.16)">
       <use xlink:href="#DejaVuSans-34"/>
       <use xlink:href="#DejaVuSans-30" x="63.623047"/>
       <use xlink:href="#DejaVuSans-30" x="127.246094"/>
       <use xlink:href="#DejaVuSans-30" x="190.869141"/>
      </g>
     </g>
    </g>
    <g id="ytick_4">
     <g id="line2d_12">
      <g>
       <use xlink:href="#ma83bf9f5d5" x="88.580625" y="263.938149" style="stroke: #000000; stroke-width: 0.8"/>
      </g>
     </g>
     <g id="text_13">
      <!-- 4500 -->
      <g transform="translate(40.860625 270.016899) scale(0.16 -0.16)">
       <use xlink:href="#DejaVuSans-34"/>
       <use xlink:href="#DejaVuSans-35" x="63.623047"/>
       <use xlink:href="#DejaVuSans-30" x="127.246094"/>
       <use xlink:href="#DejaVuSans-30" x="190.869141"/>
      </g>
     </g>
    </g>
    <g id="ytick_5">
     <g id="line2d_13">
      <g>
       <use xlink:href="#ma83bf9f5d5" x="88.580625" y="218.797599" style="stroke: #000000; stroke-width: 0.8"/>
      </g>
     </g>
     <g id="text_14">
      <!-- 5000 -->
      <g transform="translate(40.860625 224.876349) scale(0.16 -0.16)">
       <use xlink:href="#DejaVuSans-35"/>
       <use xlink:href="#DejaVuSans-30" x="63.623047"/>
       <use xlink:href="#DejaVuSans-30" x="127.246094"/>
       <use xlink:href="#DejaVuSans-30" x="190.869141"/>
      </g>
     </g>
    </g>
    <g id="ytick_6">
     <g id="line2d_14">
      <g>
       <use xlink:href="#ma83bf9f5d5" x="88.580625" y="173.657048" style="stroke: #000000; stroke-width: 0.8"/>
      </g>
     </g>
     <g id="text_15">
      <!-- 5500 -->
      <g transform="translate(40.860625 179.735798) scale(0.16 -0.16)">
       <use xlink:href="#DejaVuSans-35"/>
       <use xlink:href="#DejaVuSans-35" x="63.623047"/>
       <use xlink:href="#DejaVuSans-30" x="127.246094"/>
       <use xlink:href="#DejaVuSans-30" x="190.869141"/>
      </g>
     </g>
    </g>
    <g id="ytick_7">
     <g id="line2d_15">
      <g>
       <use xlink:href="#ma83bf9f5d5" x="88.580625" y="128.516498" style="stroke: #000000; stroke-width: 0.8"/>
      </g>
     </g>
     <g id="text_16">
      <!-- 6000 -->
      <g transform="translate(40.860625 134.595248) scale(0.16 -0.16)">
       <use xlink:href="#DejaVuSans-36"/>
       <use xlink:href="#DejaVuSans-30" x="63.623047"/>
       <use xlink:href="#DejaVuSans-30" x="127.246094"/>
       <use xlink:href="#DejaVuSans-30" x="190.869141"/>
      </g>
     </g>
    </g>
    <g id="ytick_8">
     <g id="line2d_16">
      <g>
       <use xlink:href="#ma83bf9f5d5" x="88.580625" y="83.375948" style="stroke: #000000; stroke-width: 0.8"/>
      </g>
     </g>
     <g id="text_17">
      <!-- 6500 -->
      <g transform="translate(40.860625 89.454698) scale(0.16 -0.16)">
       <use xlink:href="#DejaVuSans-36"/>
       <use xlink:href="#DejaVuSans-35" x="63.623047"/>
       <use xlink:href="#DejaVuSans-30" x="127.246094"/>
       <use xlink:href="#DejaVuSans-30" x="190.869141"/>
      </g>
     </g>
    </g>
    <g id="text_18">
     <!-- Number of Entities -->
     <g transform="translate(33.117188 324.870156) rotate(-90) scale(0.18 -0.18)">
      <defs>
       <path id="DejaVuSans-4e" d="M 628 4666 
L 1478 4666 
L 3547 763 
L 3547 4666 
L 4159 4666 
L 4159 0 
L 3309 0 
L 1241 3903 
L 1241 0 
L 628 0 
L 628 4666 
z
" transform="scale(0.015625)"/>
       <path id="DejaVuSans-75" d="M 544 1381 
L 544 3500 
L 1119 3500 
L 1119 1403 
Q 1119 906 1312 657 
Q 1506 409 1894 409 
Q 2359 409 2629 706 
Q 2900 1003 2900 1516 
L 2900 3500 
L 3475 3500 
L 3475 0 
L 2900 0 
L 2900 538 
Q 2691 219 2414 64 
Q 2138 -91 1772 -91 
Q 1169 -91 856 284 
Q 544 659 544 1381 
z
M 1991 3584 
L 1991 3584 
z
" transform="scale(0.015625)"/>
       <path id="DejaVuSans-6d" d="M 3328 2828 
Q 3544 3216 3844 3400 
Q 4144 3584 4550 3584 
Q 5097 3584 5394 3201 
Q 5691 2819 5691 2113 
L 5691 0 
L 5113 0 
L 5113 2094 
Q 5113 2597 4934 2840 
Q 4756 3084 4391 3084 
Q 3944 3084 3684 2787 
Q 3425 2491 3425 1978 
L 3425 0 
L 2847 0 
L 2847 2094 
Q 2847 2600 2669 2842 
Q 2491 3084 2119 3084 
Q 1678 3084 1418 2786 
Q 1159 2488 1159 1978 
L 1159 0 
L 581 0 
L 581 3500 
L 1159 3500 
L 1159 2956 
Q 1356 3278 1631 3431 
Q 1906 3584 2284 3584 
Q 2666 3584 2933 3390 
Q 3200 3197 3328 2828 
z
" transform="scale(0.015625)"/>
       <path id="DejaVuSans-62" d="M 3116 1747 
Q 3116 2381 2855 2742 
Q 2594 3103 2138 3103 
Q 1681 3103 1420 2742 
Q 1159 2381 1159 1747 
Q 1159 1113 1420 752 
Q 1681 391 2138 391 
Q 2594 391 2855 752 
Q 3116 1113 3116 1747 
z
M 1159 2969 
Q 1341 3281 1617 3432 
Q 1894 3584 2278 3584 
Q 2916 3584 3314 3078 
Q 3713 2572 3713 1747 
Q 3713 922 3314 415 
Q 2916 -91 2278 -91 
Q 1894 -91 1617 61 
Q 1341 213 1159 525 
L 1159 0 
L 581 0 
L 581 4863 
L 1159 4863 
L 1159 2969 
z
" transform="scale(0.015625)"/>
       <path id="DejaVuSans-65" d="M 3597 1894 
L 3597 1613 
L 953 1613 
Q 991 1019 1311 708 
Q 1631 397 2203 397 
Q 2534 397 2845 478 
Q 3156 559 3463 722 
L 3463 178 
Q 3153 47 2828 -22 
Q 2503 -91 2169 -91 
Q 1331 -91 842 396 
Q 353 884 353 1716 
Q 353 2575 817 3079 
Q 1281 3584 2069 3584 
Q 2775 3584 3186 3129 
Q 3597 2675 3597 1894 
z
M 3022 2063 
Q 3016 2534 2758 2815 
Q 2500 3097 2075 3097 
Q 1594 3097 1305 2825 
Q 1016 2553 972 2059 
L 3022 2063 
z
" transform="scale(0.015625)"/>
       <path id="DejaVuSans-72" d="M 2631 2963 
Q 2534 3019 2420 3045 
Q 2306 3072 2169 3072 
Q 1681 3072 1420 2755 
Q 1159 2438 1159 1844 
L 1159 0 
L 581 0 
L 581 3500 
L 1159 3500 
L 1159 2956 
Q 1341 3275 1631 3429 
Q 1922 3584 2338 3584 
Q 2397 3584 2469 3576 
Q 2541 3569 2628 3553 
L 2631 2963 
z
" transform="scale(0.015625)"/>
       <path id="DejaVuSans-20" transform="scale(0.015625)"/>
       <path id="DejaVuSans-66" d="M 2375 4863 
L 2375 4384 
L 1825 4384 
Q 1516 4384 1395 4259 
Q 1275 4134 1275 3809 
L 1275 3500 
L 2222 3500 
L 2222 3053 
L 1275 3053 
L 1275 0 
L 697 0 
L 697 3053 
L 147 3053 
L 147 3500 
L 697 3500 
L 697 3744 
Q 697 4328 969 4595 
Q 1241 4863 1831 4863 
L 2375 4863 
z
" transform="scale(0.015625)"/>
       <path id="DejaVuSans-6e" d="M 3513 2113 
L 3513 0 
L 2938 0 
L 2938 2094 
Q 2938 2591 2744 2837 
Q 2550 3084 2163 3084 
Q 1697 3084 1428 2787 
Q 1159 2491 1159 1978 
L 1159 0 
L 581 0 
L 581 3500 
L 1159 3500 
L 1159 2956 
Q 1366 3272 1645 3428 
Q 1925 3584 2291 3584 
Q 2894 3584 3203 3211 
Q 3513 2838 3513 2113 
z
" transform="scale(0.015625)"/>
       <path id="DejaVuSans-74" d="M 1172 4494 
L 1172 3500 
L 2356 3500 
L 2356 3053 
L 1172 3053 
L 1172 1153 
Q 1172 725 1289 603 
Q 1406 481 1766 481 
L 2356 481 
L 2356 0 
L 1766 0 
Q 1100 0 847 248 
Q 594 497 594 1153 
L 594 3053 
L 172 3053 
L 172 3500 
L 594 3500 
L 594 4494 
L 1172 4494 
z
" transform="scale(0.015625)"/>
       <path id="DejaVuSans-69" d="M 603 3500 
L 1178 3500 
L 1178 0 
L 603 0 
L 603 3500 
z
M 603 4863 
L 1178 4863 
L 1178 4134 
L 603 4134 
L 603 4863 
z
" transform="scale(0.015625)"/>
       <path id="DejaVuSans-73" d="M 2834 3397 
L 2834 2853 
Q 2591 2978 2328 3040 
Q 2066 3103 1784 3103 
Q 1356 3103 1142 2972 
Q 928 2841 928 2578 
Q 928 2378 1081 2264 
Q 1234 2150 1697 2047 
L 1894 2003 
Q 2506 1872 2764 1633 
Q 3022 1394 3022 966 
Q 3022 478 2636 193 
Q 2250 -91 1575 -91 
Q 1294 -91 989 -36 
Q 684 19 347 128 
L 347 722 
Q 666 556 975 473 
Q 1284 391 1588 391 
Q 1994 391 2212 530 
Q 2431 669 2431 922 
Q 2431 1156 2273 1281 
Q 2116 1406 1581 1522 
L 1381 1569 
Q 847 1681 609 1914 
Q 372 2147 372 2553 
Q 372 3047 722 3315 
Q 1072 3584 1716 3584 
Q 2034 3584 2315 3537 
Q 2597 3491 2834 3397 
z
" transform="scale(0.015625)"/>
      </defs>
      <use xlink:href="#DejaVuSans-4e"/>
      <use xlink:href="#DejaVuSans-75" x="74.804688"/>
      <use xlink:href="#DejaVuSans-6d" x="138.183594"/>
      <use xlink:href="#DejaVuSans-62" x="235.595703"/>
      <use xlink:href="#DejaVuSans-65" x="299.072266"/>
      <use xlink:href="#DejaVuSans-72" x="360.595703"/>
      <use xlink:href="#DejaVuSans-20" x="401.708984"/>
      <use xlink:href="#DejaVuSans-6f" x="433.496094"/>
      <use xlink:href="#DejaVuSans-66" x="494.677734"/>
      <use xlink:href="#DejaVuSans-20" x="529.882812"/>
      <use xlink:href="#DejaVuSans-45" x="561.669922"/>
      <use xlink:href="#DejaVuSans-6e" x="624.853516"/>
      <use xlink:href="#DejaVuSans-74" x="688.232422"/>
      <use xlink:href="#DejaVuSans-69" x="727.441406"/>
      <use xlink:href="#DejaVuSans-74" x="755.224609"/>
      <use xlink:href="#DejaVuSans-69" x="794.433594"/>
      <use xlink:href="#DejaVuSans-65" x="822.216797"/>
      <use xlink:href="#DejaVuSans-73" x="883.740234"/>
     </g>
    </g>
   </g>
   <g id="line2d_17">
    <path d="M 110.525597 58.819489 
L 549.425028 58.819489 
L 549.425028 58.819489 
" clip-path="url(#p341c9a453a)" style="fill: none; stroke: #1f77b4; stroke-width: 1.5; stroke-linecap: square"/>
   </g>
   <g id="line2d_18">
    <path d="M 110.525597 104.321163 
L 190.057708 104.321163 
L 193.003342 100.439076 
L 225.405314 100.439076 
L 228.350947 96.376426 
L 231.296581 96.376426 
L 234.242215 104.321163 
L 237.187849 104.321163 
L 240.133482 99.897389 
L 248.970384 99.897389 
L 251.916018 98.452892 
L 284.317989 98.452892 
L 287.263623 95.744459 
L 296.100524 95.744459 
L 299.046158 93.216588 
L 307.883059 93.216588 
L 310.828693 91.591528 
L 319.665594 91.591528 
L 322.611228 88.070565 
L 331.448129 88.070565 
L 334.393763 83.827353 
L 343.230664 83.827353 
L 346.176298 80.577234 
L 355.0132 80.577234 
L 357.958833 98.452892 
L 366.795735 98.452892 
L 369.741368 94.841648 
L 378.57827 94.841648 
L 381.523903 89.334501 
L 390.360805 89.334501 
L 393.306439 87.61916 
L 425.70841 87.61916 
L 428.654044 83.466229 
L 437.490945 83.466229 
L 440.436579 79.313298 
L 449.27348 79.313298 
L 452.219114 77.327114 
L 478.729818 77.327114 
L 481.675452 104.321163 
L 484.621085 104.321163 
L 487.566719 102.605822 
L 496.403621 102.605822 
L 499.349254 99.98767 
L 508.186156 99.98767 
L 511.131789 94.570804 
L 519.968691 94.570804 
L 522.914324 90.598436 
L 531.751226 90.598436 
L 534.69686 87.077473 
L 543.533761 87.077473 
L 546.479395 85.903819 
L 549.425028 85.903819 
L 549.425028 85.903819 
" clip-path="url(#p341c9a453a)" style="fill: none; stroke: #2ca02c; stroke-width: 1.5; stroke-linecap: square"/>
   </g>
   <g id="line2d_19">
    <path d="M 110.525597 421.478669 
L 119.362498 421.478669 
L 122.308132 372.817156 
L 231.296581 372.817156 
L 234.242215 421.478669 
L 549.425028 421.478669 
L 549.425028 421.478669 
" clip-path="url(#p341c9a453a)" style="fill: none; stroke: #9467bd; stroke-width: 1.5; stroke-linecap: square"/>
   </g>
   <g id="line2d_20">
    <path d="M 110.525597 422.471761 
L 549.425028 422.471761 
L 549.425028 422.471761 
" clip-path="url(#p341c9a453a)" style="fill: none; stroke: #e377c2; stroke-width: 1.5; stroke-linecap: square"/>
   </g>
   <g id="line2d_21">
    <path d="M 110.525597 401.616827 
L 225.405314 401.616827 
L 228.350947 376.608962 
L 231.296581 376.608962 
L 234.242215 401.616827 
L 237.187849 401.616827 
L 240.133482 376.608962 
L 355.0132 376.608962 
L 357.958833 401.616827 
L 449.27348 401.616827 
L 452.219114 385.095386 
L 478.729818 385.095386 
L 481.675452 401.616827 
L 508.186156 401.616827 
L 511.131789 373.087999 
L 549.425028 373.087999 
L 549.425028 373.087999 
" clip-path="url(#p341c9a453a)" style="fill: none; stroke: #bcbd22; stroke-width: 1.5; stroke-linecap: square"/>
   </g>
   <g id="line2d_22">
    <path d="M 110.525597 200.921941 
L 119.362498 200.921941 
L 122.308132 172.754237 
L 131.145033 172.754237 
L 134.090667 145.03794 
L 142.927568 145.03794 
L 145.873202 124.363568 
L 154.710103 124.363568 
L 157.655737 109.82831 
L 166.492638 109.82831 
L 169.438272 98.182048 
L 178.275173 98.182048 
L 181.220807 89.244219 
L 190.057708 89.244219 
L 193.003342 82.924542 
L 201.840243 82.924542 
L 204.785877 78.229925 
L 213.622779 78.229925 
L 216.568412 74.618681 
L 225.405314 74.618681 
L 228.350947 70.917156 
L 231.296581 70.917156 
L 234.242215 200.921941 
L 237.187849 200.921941 
L 240.133482 166.43456 
L 248.970384 166.43456 
L 251.916018 139.079387 
L 260.752919 139.079387 
L 263.698553 118.766139 
L 272.535454 118.766139 
L 275.481088 103.689196 
L 284.317989 103.689196 
L 287.263623 92.494339 
L 296.100524 92.494339 
L 299.046158 84.098197 
L 307.883059 84.098197 
L 310.828693 77.77852 
L 319.665594 77.77852 
L 322.611228 73.083903 
L 331.448129 73.083903 
L 334.393763 69.56294 
L 343.230664 69.56294 
L 346.176298 67.576755 
L 355.0132 67.576755 
L 357.958833 173.476486 
L 366.795735 173.476486 
L 369.741368 153.434082 
L 378.57827 153.434082 
L 381.523903 129.419309 
L 390.360805 129.419309 
L 393.306439 113.439554 
L 402.14334 113.439554 
L 405.088974 99.716827 
L 413.925875 99.716827 
L 416.871509 89.515063 
L 425.70841 89.515063 
L 428.654044 83.195386 
L 437.490945 83.195386 
L 440.436579 77.688239 
L 449.27348 77.688239 
L 452.219114 73.264465 
L 461.056015 73.264465 
L 464.001649 70.375469 
L 472.83855 70.375469 
L 475.784184 68.028161 
L 478.729818 68.028161 
L 481.675452 200.921941 
L 484.621085 200.921941 
L 487.566719 175.46267 
L 496.403621 175.46267 
L 499.349254 156.864764 
L 508.186156 156.864764 
L 511.131789 132.308304 
L 519.968691 132.308304 
L 522.914324 119.849513 
L 531.751226 119.849513 
L 534.69686 109.557467 
L 543.533761 109.557467 
L 546.479395 96.827832 
L 549.425028 96.827832 
L 549.425028 96.827832 
" clip-path="url(#p341c9a453a)" style="fill: none; stroke: #9edae5; stroke-width: 1.5; stroke-linecap: square"/>
   </g>
   <g id="patch_3">
    <path d="M 88.580625 440.654375 
L 88.580625 40.636875 
" style="fill: none; stroke: #000000; stroke-width: 0.8; stroke-linejoin: miter; stroke-linecap: square"/>
   </g>
   <g id="patch_4">
    <path d="M 571.37 440.654375 
L 571.37 40.636875 
" style="fill: none; stroke: #000000; stroke-width: 0.8; stroke-linejoin: miter; stroke-linecap: square"/>
   </g>
   <g id="patch_5">
    <path d="M 88.580625 440.654375 
L 571.37 440.654375 
" style="fill: none; stroke: #000000; stroke-width: 0.8; stroke-linejoin: miter; stroke-linecap: square"/>
   </g>
   <g id="patch_6">
    <path d="M 88.580625 40.636875 
L 571.37 40.636875 
" style="fill: none; stroke: #000000; stroke-width: 0.8; stroke-linejoin: miter; stroke-linecap: square"/>
   </g>
   <g id="text_19">
    <!-- Number of Class Entities -->
    <g transform="translate(206.906563 34.636875) scale(0.2 -0.2)">
     <defs>
      <path id="DejaVuSans-43" d="M 4122 4306 
L 4122 3641 
Q 3803 3938 3442 4084 
Q 3081 4231 2675 4231 
Q 1875 4231 1450 3742 
Q 1025 3253 1025 2328 
Q 1025 1406 1450 917 
Q 1875 428 2675 428 
Q 3081 428 3442 575 
Q 3803 722 4122 1019 
L 4122 359 
Q 3791 134 3420 21 
Q 3050 -91 2638 -91 
Q 1578 -91 968 557 
Q 359 1206 359 2328 
Q 359 3453 968 4101 
Q 1578 4750 2638 4750 
Q 3056 4750 3426 4639 
Q 3797 4528 4122 4306 
z
" transform="scale(0.015625)"/>
      <path id="DejaVuSans-6c" d="M 603 4863 
L 1178 4863 
L 1178 0 
L 603 0 
L 603 4863 
z
" transform="scale(0.015625)"/>
      <path id="DejaVuSans-61" d="M 2194 1759 
Q 1497 1759 1228 1600 
Q 959 1441 959 1056 
Q 959 750 1161 570 
Q 1363 391 1709 391 
Q 2188 391 2477 730 
Q 2766 1069 2766 1631 
L 2766 1759 
L 2194 1759 
z
M 3341 1997 
L 3341 0 
L 2766 0 
L 2766 531 
Q 2569 213 2275 61 
Q 1981 -91 1556 -91 
Q 1019 -91 701 211 
Q 384 513 384 1019 
Q 384 1609 779 1909 
Q 1175 2209 1959 2209 
L 2766 2209 
L 2766 2266 
Q 2766 2663 2505 2880 
Q 2244 3097 1772 3097 
Q 1472 3097 1187 3025 
Q 903 2953 641 2809 
L 641 3341 
Q 956 3463 1253 3523 
Q 1550 3584 1831 3584 
Q 2591 3584 2966 3190 
Q 3341 2797 3341 1997 
z
" transform="scale(0.015625)"/>
     </defs>
     <use xlink:href="#DejaVuSans-4e"/>
     <use xlink:href="#DejaVuSans-75" x="74.804688"/>
     <use xlink:href="#DejaVuSans-6d" x="138.183594"/>
     <use xlink:href="#DejaVuSans-62" x="235.595703"/>
     <use xlink:href="#DejaVuSans-65" x="299.072266"/>
     <use xlink:href="#DejaVuSans-72" x="360.595703"/>
     <use xlink:href="#DejaVuSans-20" x="401.708984"/>
     <use xlink:href="#DejaVuSans-6f" x="433.496094"/>
     <use xlink:href="#DejaVuSans-66" x="494.677734"/>
     <use xlink:href="#DejaVuSans-20" x="529.882812"/>
     <use xlink:href="#DejaVuSans-43" x="561.669922"/>
     <use xlink:href="#DejaVuSans-6c" x="631.494141"/>
     <use xlink:href="#DejaVuSans-61" x="659.277344"/>
     <use xlink:href="#DejaVuSans-73" x="720.556641"/>
     <use xlink:href="#DejaVuSans-73" x="772.65625"/>
     <use xlink:href="#DejaVuSans-20" x="824.755859"/>
     <use xlink:href="#DejaVuSans-45" x="856.542969"/>
     <use xlink:href="#DejaVuSans-6e" x="919.726562"/>
     <use xlink:href="#DejaVuSans-74" x="983.105469"/>
     <use xlink:href="#DejaVuSans-69" x="1022.314453"/>
     <use xlink:href="#DejaVuSans-74" x="1050.097656"/>
     <use xlink:href="#DejaVuSans-69" x="1089.306641"/>
     <use xlink:href="#DejaVuSans-65" x="1117.089844"/>
     <use xlink:href="#DejaVuSans-73" x="1178.613281"/>
    </g>
   </g>
   <g id="legend_1">
    <g id="patch_7">
     <path d="M 451.6125 432.654375 
L 560.17 432.654375 
Q 563.37 432.654375 563.37 429.454375 
L 563.37 290.144375 
Q 563.37 286.944375 560.17 286.944375 
L 451.6125 286.944375 
Q 448.4125 286.944375 448.4125 290.144375 
L 448.4125 429.454375 
Q 448.4125 432.654375 451.6125 432.654375 
z
" style="fill: #ffffff; opacity: 0.8; stroke: #cccccc; stroke-linejoin: miter"/>
    </g>
    <g id="line2d_23">
     <path d="M 454.8125 299.901875 
L 470.8125 299.901875 
L 486.8125 299.901875 
" style="fill: none; stroke: #1f77b4; stroke-width: 1.5; stroke-linecap: square"/>
    </g>
    <g id="text_20">
     <!-- Class 1 -->
     <g transform="translate(499.6125 305.501875) scale(0.16 -0.16)">
      <use xlink:href="#DejaVuSans-43"/>
      <use xlink:href="#DejaVuSans-6c" x="69.824219"/>
      <use xlink:href="#DejaVuSans-61" x="97.607422"/>
      <use xlink:href="#DejaVuSans-73" x="158.886719"/>
      <use xlink:href="#DejaVuSans-73" x="210.986328"/>
      <use xlink:href="#DejaVuSans-20" x="263.085938"/>
      <use xlink:href="#DejaVuSans-31" x="294.873047"/>
     </g>
    </g>
    <g id="line2d_24">
     <path d="M 454.8125 323.386875 
L 470.8125 323.386875 
L 486.8125 323.386875 
" style="fill: none; stroke: #2ca02c; stroke-width: 1.5; stroke-linecap: square"/>
    </g>
    <g id="text_21">
     <!-- Class 2 -->
     <g transform="translate(499.6125 328.986875) scale(0.16 -0.16)">
      <use xlink:href="#DejaVuSans-43"/>
      <use xlink:href="#DejaVuSans-6c" x="69.824219"/>
      <use xlink:href="#DejaVuSans-61" x="97.607422"/>
      <use xlink:href="#DejaVuSans-73" x="158.886719"/>
      <use xlink:href="#DejaVuSans-73" x="210.986328"/>
      <use xlink:href="#DejaVuSans-20" x="263.085938"/>
      <use xlink:href="#DejaVuSans-32" x="294.873047"/>
     </g>
    </g>
    <g id="line2d_25">
     <path d="M 454.8125 346.871875 
L 470.8125 346.871875 
L 486.8125 346.871875 
" style="fill: none; stroke: #9467bd; stroke-width: 1.5; stroke-linecap: square"/>
    </g>
    <g id="text_22">
     <!-- Class 3 -->
     <g transform="translate(499.6125 352.471875) scale(0.16 -0.16)">
      <use xlink:href="#DejaVuSans-43"/>
      <use xlink:href="#DejaVuSans-6c" x="69.824219"/>
      <use xlink:href="#DejaVuSans-61" x="97.607422"/>
      <use xlink:href="#DejaVuSans-73" x="158.886719"/>
      <use xlink:href="#DejaVuSans-73" x="210.986328"/>
      <use xlink:href="#DejaVuSans-20" x="263.085938"/>
      <use xlink:href="#DejaVuSans-33" x="294.873047"/>
     </g>
    </g>
    <g id="line2d_26">
     <path d="M 454.8125 370.356875 
L 470.8125 370.356875 
L 486.8125 370.356875 
" style="fill: none; stroke: #e377c2; stroke-width: 1.5; stroke-linecap: square"/>
    </g>
    <g id="text_23">
     <!-- Class 4 -->
     <g transform="translate(499.6125 375.956875) scale(0.16 -0.16)">
      <use xlink:href="#DejaVuSans-43"/>
      <use xlink:href="#DejaVuSans-6c" x="69.824219"/>
      <use xlink:href="#DejaVuSans-61" x="97.607422"/>
      <use xlink:href="#DejaVuSans-73" x="158.886719"/>
      <use xlink:href="#DejaVuSans-73" x="210.986328"/>
      <use xlink:href="#DejaVuSans-20" x="263.085938"/>
      <use xlink:href="#DejaVuSans-34" x="294.873047"/>
     </g>
    </g>
    <g id="line2d_27">
     <path d="M 454.8125 393.841875 
L 470.8125 393.841875 
L 486.8125 393.841875 
" style="fill: none; stroke: #bcbd22; stroke-width: 1.5; stroke-linecap: square"/>
    </g>
    <g id="text_24">
     <!-- Class 5 -->
     <g transform="translate(499.6125 399.441875) scale(0.16 -0.16)">
      <use xlink:href="#DejaVuSans-43"/>
      <use xlink:href="#DejaVuSans-6c" x="69.824219"/>
      <use xlink:href="#DejaVuSans-61" x="97.607422"/>
      <use xlink:href="#DejaVuSans-73" x="158.886719"/>
      <use xlink:href="#DejaVuSans-73" x="210.986328"/>
      <use xlink:href="#DejaVuSans-20" x="263.085938"/>
      <use xlink:href="#DejaVuSans-35" x="294.873047"/>
     </g>
    </g>
    <g id="line2d_28">
     <path d="M 454.8125 417.326875 
L 470.8125 417.326875 
L 486.8125 417.326875 
" style="fill: none; stroke: #9edae5; stroke-width: 1.5; stroke-linecap: square"/>
    </g>
    <g id="text_25">
     <!-- Class 6 -->
     <g transform="translate(499.6125 422.926875) scale(0.16 -0.16)">
      <use xlink:href="#DejaVuSans-43"/>
      <use xlink:href="#DejaVuSans-6c" x="69.824219"/>
      <use xlink:href="#DejaVuSans-61" x="97.607422"/>
      <use xlink:href="#DejaVuSans-73" x="158.886719"/>
      <use xlink:href="#DejaVuSans-73" x="210.986328"/>
      <use xlink:href="#DejaVuSans-20" x="263.085938"/>
      <use xlink:href="#DejaVuSans-36" x="294.873047"/>
     </g>
    </g>
   </g>
  </g>
  <g id="axes_2">
   <g id="patch_8">
    <path d="M 649.770625 440.654375 
L 1132.56 440.654375 
L 1132.56 40.636875 
L 649.770625 40.636875 
z
" style="fill: #ffffff"/>
   </g>
   <g id="matplotlib.axis_3">
    <g id="xtick_9">
     <g id="line2d_29">
      <g>
       <use xlink:href="#m3957e328b5" x="668.769963" y="440.654375" style="stroke: #000000; stroke-width: 0.8"/>
      </g>
     </g>
     <g id="text_26">
      <!-- 0 -->
      <g transform="translate(663.679963 459.811875) scale(0.16 -0.16)">
       <use xlink:href="#DejaVuSans-30"/>
      </g>
     </g>
    </g>
    <g id="xtick_10">
     <g id="line2d_30">
      <g>
       <use xlink:href="#m3957e328b5" x="727.682638" y="440.654375" style="stroke: #000000; stroke-width: 0.8"/>
      </g>
     </g>
     <g id="text_27">
      <!-- 20 -->
      <g transform="translate(717.502638 459.811875) scale(0.16 -0.16)">
       <use xlink:href="#DejaVuSans-32"/>
       <use xlink:href="#DejaVuSans-30" x="63.623047"/>
      </g>
     </g>
    </g>
    <g id="xtick_11">
     <g id="line2d_31">
      <g>
       <use xlink:href="#m3957e328b5" x="786.595314" y="440.654375" style="stroke: #000000; stroke-width: 0.8"/>
      </g>
     </g>
     <g id="text_28">
      <!-- 40 -->
      <g transform="translate(776.415314 459.811875) scale(0.16 -0.16)">
       <use xlink:href="#DejaVuSans-34"/>
       <use xlink:href="#DejaVuSans-30" x="63.623047"/>
      </g>
     </g>
    </g>
    <g id="xtick_12">
     <g id="line2d_32">
      <g>
       <use xlink:href="#m3957e328b5" x="845.507989" y="440.654375" style="stroke: #000000; stroke-width: 0.8"/>
      </g>
     </g>
     <g id="text_29">
      <!-- 60 -->
      <g transform="translate(835.327989 459.811875) scale(0.16 -0.16)">
       <use xlink:href="#DejaVuSans-36"/>
       <use xlink:href="#DejaVuSans-30" x="63.623047"/>
      </g>
     </g>
    </g>
    <g id="xtick_13">
     <g id="line2d_33">
      <g>
       <use xlink:href="#m3957e328b5" x="904.420664" y="440.654375" style="stroke: #000000; stroke-width: 0.8"/>
      </g>
     </g>
     <g id="text_30">
      <!-- 80 -->
      <g transform="translate(894.240664 459.811875) scale(0.16 -0.16)">
       <use xlink:href="#DejaVuSans-38"/>
       <use xlink:href="#DejaVuSans-30" x="63.623047"/>
      </g>
     </g>
    </g>
    <g id="xtick_14">
     <g id="line2d_34">
      <g>
       <use xlink:href="#m3957e328b5" x="963.33334" y="440.654375" style="stroke: #000000; stroke-width: 0.8"/>
      </g>
     </g>
     <g id="text_31">
      <!-- 100 -->
      <g transform="translate(948.06334 459.811875) scale(0.16 -0.16)">
       <use xlink:href="#DejaVuSans-31"/>
       <use xlink:href="#DejaVuSans-30" x="63.623047"/>
       <use xlink:href="#DejaVuSans-30" x="127.246094"/>
      </g>
     </g>
    </g>
    <g id="xtick_15">
     <g id="line2d_35">
      <g>
       <use xlink:href="#m3957e328b5" x="1022.246015" y="440.654375" style="stroke: #000000; stroke-width: 0.8"/>
      </g>
     </g>
     <g id="text_32">
      <!-- 120 -->
      <g transform="translate(1006.976015 459.811875) scale(0.16 -0.16)">
       <use xlink:href="#DejaVuSans-31"/>
       <use xlink:href="#DejaVuSans-32" x="63.623047"/>
       <use xlink:href="#DejaVuSans-30" x="127.246094"/>
      </g>
     </g>
    </g>
    <g id="xtick_16">
     <g id="line2d_36">
      <g>
       <use xlink:href="#m3957e328b5" x="1081.158691" y="440.654375" style="stroke: #000000; stroke-width: 0.8"/>
      </g>
     </g>
     <g id="text_33">
      <!-- 140 -->
      <g transform="translate(1065.888691 459.811875) scale(0.16 -0.16)">
       <use xlink:href="#DejaVuSans-31"/>
       <use xlink:href="#DejaVuSans-34" x="63.623047"/>
       <use xlink:href="#DejaVuSans-30" x="127.246094"/>
      </g>
     </g>
    </g>
    <g id="text_34">
     <!-- Epoch -->
     <g transform="translate(863.605625 480.816563) scale(0.18 -0.18)">
      <use xlink:href="#DejaVuSans-45"/>
      <use xlink:href="#DejaVuSans-70" x="63.183594"/>
      <use xlink:href="#DejaVuSans-6f" x="126.660156"/>
      <use xlink:href="#DejaVuSans-63" x="187.841797"/>
      <use xlink:href="#DejaVuSans-68" x="242.822266"/>
     </g>
    </g>
   </g>
   <g id="matplotlib.axis_4">
    <g id="ytick_9">
     <g id="line2d_37">
      <g>
       <use xlink:href="#ma83bf9f5d5" x="649.770625" y="405.981563" style="stroke: #000000; stroke-width: 0.8"/>
      </g>
     </g>
     <g id="text_35">
      <!-- 60 -->
      <g transform="translate(622.410625 412.060313) scale(0.16 -0.16)">
       <use xlink:href="#DejaVuSans-36"/>
       <use xlink:href="#DejaVuSans-30" x="63.623047"/>
      </g>
     </g>
    </g>
    <g id="ytick_10">
     <g id="line2d_38">
      <g>
       <use xlink:href="#ma83bf9f5d5" x="649.770625" y="319.191044" style="stroke: #000000; stroke-width: 0.8"/>
      </g>
     </g>
     <g id="text_36">
      <!-- 70 -->
      <g transform="translate(622.410625 325.269794) scale(0.16 -0.16)">
       <defs>
        <path id="DejaVuSans-37" d="M 525 4666 
L 3525 4666 
L 3525 4397 
L 1831 0 
L 1172 0 
L 2766 4134 
L 525 4134 
L 525 4666 
z
" transform="scale(0.015625)"/>
       </defs>
       <use xlink:href="#DejaVuSans-37"/>
       <use xlink:href="#DejaVuSans-30" x="63.623047"/>
      </g>
     </g>
    </g>
    <g id="ytick_11">
     <g id="line2d_39">
      <g>
       <use xlink:href="#ma83bf9f5d5" x="649.770625" y="232.400526" style="stroke: #000000; stroke-width: 0.8"/>
      </g>
     </g>
     <g id="text_37">
      <!-- 80 -->
      <g transform="translate(622.410625 238.479276) scale(0.16 -0.16)">
       <use xlink:href="#DejaVuSans-38"/>
       <use xlink:href="#DejaVuSans-30" x="63.623047"/>
      </g>
     </g>
    </g>
    <g id="ytick_12">
     <g id="line2d_40">
      <g>
       <use xlink:href="#ma83bf9f5d5" x="649.770625" y="145.610007" style="stroke: #000000; stroke-width: 0.8"/>
      </g>
     </g>
     <g id="text_38">
      <!-- 90 -->
      <g transform="translate(622.410625 151.688757) scale(0.16 -0.16)">
       <defs>
        <path id="DejaVuSans-39" d="M 703 97 
L 703 672 
Q 941 559 1184 500 
Q 1428 441 1663 441 
Q 2288 441 2617 861 
Q 2947 1281 2994 2138 
Q 2813 1869 2534 1725 
Q 2256 1581 1919 1581 
Q 1219 1581 811 2004 
Q 403 2428 403 3163 
Q 403 3881 828 4315 
Q 1253 4750 1959 4750 
Q 2769 4750 3195 4129 
Q 3622 3509 3622 2328 
Q 3622 1225 3098 567 
Q 2575 -91 1691 -91 
Q 1453 -91 1209 -44 
Q 966 3 703 97 
z
M 1959 2075 
Q 2384 2075 2632 2365 
Q 2881 2656 2881 3163 
Q 2881 3666 2632 3958 
Q 2384 4250 1959 4250 
Q 1534 4250 1286 3958 
Q 1038 3666 1038 3163 
Q 1038 2656 1286 2365 
Q 1534 2075 1959 2075 
z
" transform="scale(0.015625)"/>
       </defs>
       <use xlink:href="#DejaVuSans-39"/>
       <use xlink:href="#DejaVuSans-30" x="63.623047"/>
      </g>
     </g>
    </g>
    <g id="ytick_13">
     <g id="line2d_41">
      <g>
       <use xlink:href="#ma83bf9f5d5" x="649.770625" y="58.819489" style="stroke: #000000; stroke-width: 0.8"/>
      </g>
     </g>
     <g id="text_39">
      <!-- 100 -->
      <g transform="translate(612.230625 64.898239) scale(0.16 -0.16)">
       <use xlink:href="#DejaVuSans-31"/>
       <use xlink:href="#DejaVuSans-30" x="63.623047"/>
       <use xlink:href="#DejaVuSans-30" x="127.246094"/>
      </g>
     </g>
    </g>
    <g id="text_40">
     <!-- Accuracy (%) -->
     <g transform="translate(604.487188 300.170781) rotate(-90) scale(0.18 -0.18)">
      <defs>
       <path id="DejaVuSans-41" d="M 2188 4044 
L 1331 1722 
L 3047 1722 
L 2188 4044 
z
M 1831 4666 
L 2547 4666 
L 4325 0 
L 3669 0 
L 3244 1197 
L 1141 1197 
L 716 0 
L 50 0 
L 1831 4666 
z
" transform="scale(0.015625)"/>
       <path id="DejaVuSans-79" d="M 2059 -325 
Q 1816 -950 1584 -1140 
Q 1353 -1331 966 -1331 
L 506 -1331 
L 506 -850 
L 844 -850 
Q 1081 -850 1212 -737 
Q 1344 -625 1503 -206 
L 1606 56 
L 191 3500 
L 800 3500 
L 1894 763 
L 2988 3500 
L 3597 3500 
L 2059 -325 
z
" transform="scale(0.015625)"/>
       <path id="DejaVuSans-28" d="M 1984 4856 
Q 1566 4138 1362 3434 
Q 1159 2731 1159 2009 
Q 1159 1288 1364 580 
Q 1569 -128 1984 -844 
L 1484 -844 
Q 1016 -109 783 600 
Q 550 1309 550 2009 
Q 550 2706 781 3412 
Q 1013 4119 1484 4856 
L 1984 4856 
z
" transform="scale(0.015625)"/>
       <path id="DejaVuSans-25" d="M 4653 2053 
Q 4381 2053 4226 1822 
Q 4072 1591 4072 1178 
Q 4072 772 4226 539 
Q 4381 306 4653 306 
Q 4919 306 5073 539 
Q 5228 772 5228 1178 
Q 5228 1588 5073 1820 
Q 4919 2053 4653 2053 
z
M 4653 2450 
Q 5147 2450 5437 2106 
Q 5728 1763 5728 1178 
Q 5728 594 5436 251 
Q 5144 -91 4653 -91 
Q 4153 -91 3862 251 
Q 3572 594 3572 1178 
Q 3572 1766 3864 2108 
Q 4156 2450 4653 2450 
z
M 1428 4353 
Q 1159 4353 1004 4120 
Q 850 3888 850 3481 
Q 850 3069 1003 2837 
Q 1156 2606 1428 2606 
Q 1700 2606 1854 2837 
Q 2009 3069 2009 3481 
Q 2009 3884 1853 4118 
Q 1697 4353 1428 4353 
z
M 4250 4750 
L 4750 4750 
L 1831 -91 
L 1331 -91 
L 4250 4750 
z
M 1428 4750 
Q 1922 4750 2215 4408 
Q 2509 4066 2509 3481 
Q 2509 2891 2217 2550 
Q 1925 2209 1428 2209 
Q 931 2209 642 2551 
Q 353 2894 353 3481 
Q 353 4063 643 4406 
Q 934 4750 1428 4750 
z
" transform="scale(0.015625)"/>
       <path id="DejaVuSans-29" d="M 513 4856 
L 1013 4856 
Q 1481 4119 1714 3412 
Q 1947 2706 1947 2009 
Q 1947 1309 1714 600 
Q 1481 -109 1013 -844 
L 513 -844 
Q 928 -128 1133 580 
Q 1338 1288 1338 2009 
Q 1338 2731 1133 3434 
Q 928 4138 513 4856 
z
" transform="scale(0.015625)"/>
      </defs>
      <use xlink:href="#DejaVuSans-41"/>
      <use xlink:href="#DejaVuSans-63" x="66.658203"/>
      <use xlink:href="#DejaVuSans-63" x="121.638672"/>
      <use xlink:href="#DejaVuSans-75" x="176.619141"/>
      <use xlink:href="#DejaVuSans-72" x="239.998047"/>
      <use xlink:href="#DejaVuSans-61" x="281.111328"/>
      <use xlink:href="#DejaVuSans-63" x="342.390625"/>
      <use xlink:href="#DejaVuSans-79" x="397.371094"/>
      <use xlink:href="#DejaVuSans-20" x="456.550781"/>
      <use xlink:href="#DejaVuSans-28" x="488.337891"/>
      <use xlink:href="#DejaVuSans-25" x="527.351562"/>
      <use xlink:href="#DejaVuSans-29" x="622.371094"/>
     </g>
    </g>
   </g>
   <g id="line2d_42">
    <path d="M 671.715597 265.901666 
L 680.552498 265.901666 
L 683.498132 274.754299 
L 695.280667 274.754299 
L 698.226301 283.34656 
L 710.008836 283.34656 
L 712.954469 269.112915 
L 724.737004 269.112915 
L 727.682638 172.428277 
L 739.465173 172.428277 
L 742.410807 152.379668 
L 754.193342 152.379668 
L 757.138976 106.120321 
L 768.921511 106.120321 
L 771.867145 125.561397 
L 783.64968 125.561397 
L 786.595314 131.549943 
L 798.377849 131.549943 
L 801.323482 99.26387 
L 813.106018 99.26387 
L 816.051651 105.078835 
L 827.834186 105.078835 
L 830.77982 92.841372 
L 842.562355 92.841372 
L 845.507989 94.663973 
L 857.290524 94.663973 
L 860.236158 90.064075 
L 872.018693 90.064075 
L 874.964327 83.207624 
L 886.746862 83.207624 
L 889.692496 89.369751 
L 901.475031 89.369751 
L 904.420664 77.305869 
L 916.2032 77.305869 
L 919.148833 79.12847 
L 930.931368 79.12847 
L 933.877002 83.120834 
L 945.659537 83.120834 
L 948.605171 93.362115 
L 960.387706 93.362115 
L 963.33334 82.947253 
L 975.115875 82.947253 
L 978.061509 79.041679 
L 989.844044 79.041679 
L 992.789678 79.475632 
L 1004.572213 79.475632 
L 1007.517846 68.279655 
L 1019.300382 68.279655 
L 1022.246015 80.690699 
L 1034.02855 80.690699 
L 1036.974184 82.773672 
L 1048.756719 82.773672 
L 1051.702353 78.694517 
L 1063.484888 78.694517 
L 1066.430522 100.131775 
L 1078.213057 100.131775 
L 1081.158691 79.649213 
L 1092.941226 79.649213 
L 1095.88686 82.686881 
L 1107.669395 82.686881 
L 1110.615028 74.007829 
L 1110.615028 74.007829 
" clip-path="url(#pf64750aac0)" style="fill: none; stroke: #1f77b4; stroke-width: 1.5; stroke-linecap: square"/>
   </g>
   <g id="line2d_43">
    <path d="M 671.715597 151.772134 
L 680.552498 151.772134 
L 683.498132 101.780795 
L 695.280667 101.780795 
L 698.226301 97.962013 
L 710.008836 97.962013 
L 712.954469 100.739309 
L 724.737004 100.739309 
L 727.682638 100.131775 
L 739.465173 100.131775 
L 742.410807 114.452211 
L 754.193342 114.452211 
L 757.138976 74.09462 
L 768.921511 74.09462 
L 771.867145 89.19617 
L 783.64968 89.19617 
L 786.595314 92.667791 
L 798.377849 92.667791 
L 801.323482 83.641577 
L 813.106018 83.641577 
L 816.051651 76.351173 
L 827.834186 76.351173 
L 830.77982 74.875735 
L 842.562355 74.875735 
L 845.507989 86.766036 
L 857.290524 86.766036 
L 860.236158 79.822794 
L 872.018693 79.822794 
L 874.964327 89.022589 
L 886.746862 89.022589 
L 889.692496 95.358297 
L 901.475031 95.358297 
L 904.420664 94.23002 
L 916.2032 94.23002 
L 919.148833 86.766036 
L 930.931368 86.766036 
L 933.877002 105.252416 
L 945.659537 105.252416 
L 948.605171 79.388842 
L 960.387706 79.388842 
L 963.33334 76.871916 
L 975.115875 76.871916 
L 978.061509 95.011135 
L 1004.572213 94.924344 
L 1007.517846 78.868098 
L 1019.300382 78.868098 
L 1022.246015 69.668303 
L 1034.02855 69.668303 
L 1036.974184 74.615363 
L 1048.756719 74.615363 
L 1051.702353 74.875735 
L 1063.484888 74.875735 
L 1066.430522 83.988739 
L 1078.213057 83.988739 
L 1081.158691 85.637759 
L 1092.941226 85.637759 
L 1095.88686 72.272019 
L 1107.669395 72.272019 
L 1110.615028 92.581 
L 1110.615028 92.581 
" clip-path="url(#pf64750aac0)" style="fill: none; stroke: #2ca02c; stroke-width: 1.5; stroke-linecap: square"/>
   </g>
   <g id="line2d_44">
    <path d="M 671.715597 325.006009 
L 680.552498 325.006009 
L 683.498132 95.184716 
L 695.280667 95.184716 
L 698.226301 81.385023 
L 710.008836 81.385023 
L 712.954469 68.973979 
L 724.737004 68.973979 
L 727.682638 81.037861 
L 739.465173 81.037861 
L 742.410807 58.819489 
L 783.64968 58.819489 
L 786.595314 64.374082 
L 798.377849 64.374082 
L 801.323482 58.819489 
L 827.834186 58.819489 
L 830.77982 65.328778 
L 842.562355 65.328778 
L 845.507989 58.819489 
L 945.659537 58.819489 
L 948.605171 63.679758 
L 960.387706 63.679758 
L 963.33334 58.819489 
L 989.844044 58.819489 
L 992.789678 64.634453 
L 1004.572213 64.634453 
L 1007.517846 58.819489 
L 1110.615028 58.819489 
L 1110.615028 58.819489 
" clip-path="url(#pf64750aac0)" style="fill: none; stroke: #9467bd; stroke-width: 1.5; stroke-linecap: square"/>
   </g>
   <g id="line2d_45">
    <path d="M 671.715597 81.645395 
L 680.552498 81.645395 
L 683.498132 69.494722 
L 695.280667 69.494722 
L 698.226301 65.068406 
L 710.008836 65.068406 
L 712.954469 58.819489 
L 754.193342 58.819489 
L 757.138976 64.374082 
L 768.921511 64.374082 
L 771.867145 58.819489 
L 783.64968 58.819489 
L 786.595314 72.619181 
L 798.377849 72.619181 
L 801.323482 58.819489 
L 827.834186 58.819489 
L 830.77982 69.06077 
L 842.562355 69.06077 
L 845.507989 58.819489 
L 901.475031 58.819489 
L 904.420664 64.721244 
L 916.2032 64.721244 
L 919.148833 58.819489 
L 1110.615028 58.819489 
L 1110.615028 58.819489 
" clip-path="url(#pf64750aac0)" style="fill: none; stroke: #e377c2; stroke-width: 1.5; stroke-linecap: square"/>
   </g>
   <g id="line2d_46">
    <path d="M 671.715597 186.748713 
L 680.552498 186.748713 
L 683.498132 93.101743 
L 695.280667 93.101743 
L 698.226301 86.332083 
L 710.008836 86.332083 
L 712.954469 105.252416 
L 724.737004 105.252416 
L 727.682638 89.630123 
L 739.465173 89.630123 
L 742.410807 70.449418 
L 754.193342 70.449418 
L 757.138976 64.374082 
L 768.921511 64.374082 
L 771.867145 58.819489 
L 783.64968 58.819489 
L 786.595314 88.328265 
L 798.377849 88.328265 
L 801.323482 63.159015 
L 813.106018 63.159015 
L 816.051651 68.279655 
L 827.834186 68.279655 
L 830.77982 58.819489 
L 842.562355 58.819489 
L 845.507989 63.072224 
L 857.290524 63.072224 
L 860.236158 68.626817 
L 872.018693 68.626817 
L 874.964327 58.819489 
L 886.746862 58.819489 
L 889.692496 63.332596 
L 901.475031 63.332596 
L 904.420664 72.532391 
L 916.2032 72.532391 
L 919.148833 73.313505 
L 930.931368 73.313505 
L 933.877002 76.958707 
L 945.659537 76.958707 
L 948.605171 63.592967 
L 960.387706 63.592967 
L 963.33334 69.234351 
L 975.115875 69.234351 
L 978.061509 58.819489 
L 989.844044 58.819489 
L 992.789678 63.245805 
L 1004.572213 63.245805 
L 1007.517846 72.879553 
L 1019.300382 72.879553 
L 1022.246015 64.808034 
L 1034.02855 64.808034 
L 1036.974184 63.506177 
L 1048.756719 63.506177 
L 1051.702353 63.679758 
L 1063.484888 63.679758 
L 1066.430522 76.958707 
L 1078.213057 76.958707 
L 1081.158691 58.819489 
L 1092.941226 58.819489 
L 1095.88686 67.49854 
L 1107.669395 67.49854 
L 1110.615028 58.819489 
L 1110.615028 58.819489 
" clip-path="url(#pf64750aac0)" style="fill: none; stroke: #bcbd22; stroke-width: 1.5; stroke-linecap: square"/>
   </g>
   <g id="line2d_47">
    <path d="M 671.715597 422.471761 
L 680.552498 422.471761 
L 683.498132 300.357502 
L 695.280667 300.357502 
L 698.226301 268.678962 
L 710.008836 268.678962 
L 712.954469 237.260795 
L 724.737004 237.260795 
L 727.682638 240.385253 
L 739.465173 240.385253 
L 742.410807 196.903204 
L 754.193342 196.903204 
L 757.138976 189.005266 
L 768.921511 189.005266 
L 771.867145 161.058719 
L 783.64968 161.058719 
L 786.595314 131.549943 
L 798.377849 131.549943 
L 801.323482 150.470276 
L 813.106018 150.470276 
L 816.051651 147.866561 
L 827.834186 147.866561 
L 830.77982 145.349636 
L 842.562355 145.349636 
L 845.507989 151.338181 
L 857.290524 151.338181 
L 860.236158 148.994837 
L 872.018693 148.994837 
L 874.964327 138.753556 
L 886.746862 138.753556 
L 889.692496 132.070686 
L 901.475031 132.070686 
L 904.420664 116.101231 
L 916.2032 116.101231 
L 919.148833 114.972954 
L 930.931368 114.972954 
L 933.877002 150.557067 
L 945.659537 150.557067 
L 948.605171 120.006804 
L 960.387706 120.006804 
L 963.33334 133.459335 
L 975.115875 133.459335 
L 978.061509 114.452211 
L 989.844044 114.452211 
L 992.789678 111.501333 
L 1004.572213 111.501333 
L 1007.517846 112.456029 
L 1019.300382 112.456029 
L 1022.246015 117.837041 
L 1034.02855 117.837041 
L 1036.974184 105.512788 
L 1048.756719 105.512788 
L 1051.702353 95.271506 
L 1063.484888 95.271506 
L 1066.430522 109.852314 
L 1078.213057 109.852314 
L 1081.158691 101.694005 
L 1092.941226 101.694005 
L 1095.88686 114.539002 
L 1107.669395 114.539002 
L 1110.615028 131.983896 
L 1110.615028 131.983896 
" clip-path="url(#pf64750aac0)" style="fill: none; stroke: #9edae5; stroke-width: 1.5; stroke-linecap: square"/>
   </g>
   <g id="line2d_48">
    <path d="M 671.715597 262.408348 
L 680.552498 262.408348 
L 683.498132 155.065834 
L 695.280667 155.065834 
L 698.226301 136.023994 
L 710.008836 136.023994 
L 712.954469 122.580143 
L 724.737004 122.580143 
L 727.682638 108.533098 
L 739.465173 108.533098 
L 742.410807 97.918617 
L 754.193342 97.918617 
L 757.138976 96.829396 
L 768.921511 96.829396 
L 771.867145 92.680809 
L 783.64968 92.680809 
L 786.595314 84.635328 
L 798.377849 84.635328 
L 801.323482 82.270287 
L 813.106018 82.270287 
L 816.051651 78.130379 
L 842.562355 78.082644 
L 845.507989 81.289554 
L 857.290524 81.289554 
L 860.236158 77.11059 
L 872.018693 77.11059 
L 874.964327 77.822273 
L 886.746862 77.822273 
L 889.692496 76.542113 
L 901.475031 76.542113 
L 904.420664 74.177071 
L 916.2032 74.177071 
L 919.148833 75.513645 
L 930.931368 75.513645 
L 933.877002 77.132288 
L 945.659537 77.132288 
L 948.605171 76.650601 
L 960.387706 76.650601 
L 963.33334 77.822273 
L 975.115875 77.822273 
L 978.061509 75.040637 
L 1004.572213 74.971204 
L 1007.517846 71.464867 
L 1019.300382 71.464867 
L 1022.246015 72.931627 
L 1034.02855 72.931627 
L 1036.974184 73.061813 
L 1048.756719 73.061813 
L 1051.702353 71.217514 
L 1063.484888 71.217514 
L 1066.430522 73.5435 
L 1078.213057 73.5435 
L 1081.158691 72.432581 
L 1092.941226 72.432581 
L 1095.88686 71.043933 
L 1107.669395 71.043933 
L 1110.615028 72.601823 
L 1110.615028 72.601823 
" clip-path="url(#pf64750aac0)" style="fill: none; stroke-dasharray: 5,8.25; stroke-dashoffset: 0; stroke: #ff0000; stroke-width: 5"/>
   </g>
   <g id="patch_9">
    <path d="M 649.770625 440.654375 
L 649.770625 40.636875 
" style="fill: none; stroke: #000000; stroke-width: 0.8; stroke-linejoin: miter; stroke-linecap: square"/>
   </g>
   <g id="patch_10">
    <path d="M 1132.56 440.654375 
L 1132.56 40.636875 
" style="fill: none; stroke: #000000; stroke-width: 0.8; stroke-linejoin: miter; stroke-linecap: square"/>
   </g>
   <g id="patch_11">
    <path d="M 649.770625 440.654375 
L 1132.56 440.654375 
" style="fill: none; stroke: #000000; stroke-width: 0.8; stroke-linejoin: miter; stroke-linecap: square"/>
   </g>
   <g id="patch_12">
    <path d="M 649.770625 40.636875 
L 1132.56 40.636875 
" style="fill: none; stroke: #000000; stroke-width: 0.8; stroke-linejoin: miter; stroke-linecap: square"/>
   </g>
   <g id="text_41">
    <!-- Training Class Accuracy -->
    <g transform="translate(773.393438 34.636875) scale(0.2 -0.2)">
     <defs>
      <path id="DejaVuSans-54" d="M -19 4666 
L 3928 4666 
L 3928 4134 
L 2272 4134 
L 2272 0 
L 1638 0 
L 1638 4134 
L -19 4134 
L -19 4666 
z
" transform="scale(0.015625)"/>
      <path id="DejaVuSans-67" d="M 2906 1791 
Q 2906 2416 2648 2759 
Q 2391 3103 1925 3103 
Q 1463 3103 1205 2759 
Q 947 2416 947 1791 
Q 947 1169 1205 825 
Q 1463 481 1925 481 
Q 2391 481 2648 825 
Q 2906 1169 2906 1791 
z
M 3481 434 
Q 3481 -459 3084 -895 
Q 2688 -1331 1869 -1331 
Q 1566 -1331 1297 -1286 
Q 1028 -1241 775 -1147 
L 775 -588 
Q 1028 -725 1275 -790 
Q 1522 -856 1778 -856 
Q 2344 -856 2625 -561 
Q 2906 -266 2906 331 
L 2906 616 
Q 2728 306 2450 153 
Q 2172 0 1784 0 
Q 1141 0 747 490 
Q 353 981 353 1791 
Q 353 2603 747 3093 
Q 1141 3584 1784 3584 
Q 2172 3584 2450 3431 
Q 2728 3278 2906 2969 
L 2906 3500 
L 3481 3500 
L 3481 434 
z
" transform="scale(0.015625)"/>
     </defs>
     <use xlink:href="#DejaVuSans-54"/>
     <use xlink:href="#DejaVuSans-72" x="46.333984"/>
     <use xlink:href="#DejaVuSans-61" x="87.447266"/>
     <use xlink:href="#DejaVuSans-69" x="148.726562"/>
     <use xlink:href="#DejaVuSans-6e" x="176.509766"/>
     <use xlink:href="#DejaVuSans-69" x="239.888672"/>
     <use xlink:href="#DejaVuSans-6e" x="267.671875"/>
     <use xlink:href="#DejaVuSans-67" x="331.050781"/>
     <use xlink:href="#DejaVuSans-20" x="394.527344"/>
     <use xlink:href="#DejaVuSans-43" x="426.314453"/>
     <use xlink:href="#DejaVuSans-6c" x="496.138672"/>
     <use xlink:href="#DejaVuSans-61" x="523.921875"/>
     <use xlink:href="#DejaVuSans-73" x="585.201172"/>
     <use xlink:href="#DejaVuSans-73" x="637.300781"/>
     <use xlink:href="#DejaVuSans-20" x="689.400391"/>
     <use xlink:href="#DejaVuSans-41" x="721.1875"/>
     <use xlink:href="#DejaVuSans-63" x="787.845703"/>
     <use xlink:href="#DejaVuSans-63" x="842.826172"/>
     <use xlink:href="#DejaVuSans-75" x="897.806641"/>
     <use xlink:href="#DejaVuSans-72" x="961.185547"/>
     <use xlink:href="#DejaVuSans-61" x="1002.298828"/>
     <use xlink:href="#DejaVuSans-63" x="1063.578125"/>
     <use xlink:href="#DejaVuSans-79" x="1118.558594"/>
    </g>
   </g>
   <g id="legend_2">
    <g id="patch_13">
     <path d="M 1004.455 432.654375 
L 1121.36 432.654375 
Q 1124.56 432.654375 1124.56 429.454375 
L 1124.56 266.659375 
Q 1124.56 263.459375 1121.36 263.459375 
L 1004.455 263.459375 
Q 1001.255 263.459375 1001.255 266.659375 
L 1001.255 429.454375 
Q 1001.255 432.654375 1004.455 432.654375 
z
" style="fill: #ffffff; opacity: 0.8; stroke: #cccccc; stroke-linejoin: miter"/>
    </g>
    <g id="line2d_49">
     <path d="M 1007.655 276.416875 
L 1023.655 276.416875 
L 1039.655 276.416875 
" style="fill: none; stroke: #1f77b4; stroke-width: 1.5; stroke-linecap: square"/>
    </g>
    <g id="text_42">
     <!-- Class 1 -->
     <g transform="translate(1052.455 282.016875) scale(0.16 -0.16)">
      <use xlink:href="#DejaVuSans-43"/>
      <use xlink:href="#DejaVuSans-6c" x="69.824219"/>
      <use xlink:href="#DejaVuSans-61" x="97.607422"/>
      <use xlink:href="#DejaVuSans-73" x="158.886719"/>
      <use xlink:href="#DejaVuSans-73" x="210.986328"/>
      <use xlink:href="#DejaVuSans-20" x="263.085938"/>
      <use xlink:href="#DejaVuSans-31" x="294.873047"/>
     </g>
    </g>
    <g id="line2d_50">
     <path d="M 1007.655 299.901875 
L 1023.655 299.901875 
L 1039.655 299.901875 
" style="fill: none; stroke: #2ca02c; stroke-width: 1.5; stroke-linecap: square"/>
    </g>
    <g id="text_43">
     <!-- Class 2 -->
     <g transform="translate(1052.455 305.501875) scale(0.16 -0.16)">
      <use xlink:href="#DejaVuSans-43"/>
      <use xlink:href="#DejaVuSans-6c" x="69.824219"/>
      <use xlink:href="#DejaVuSans-61" x="97.607422"/>
      <use xlink:href="#DejaVuSans-73" x="158.886719"/>
      <use xlink:href="#DejaVuSans-73" x="210.986328"/>
      <use xlink:href="#DejaVuSans-20" x="263.085938"/>
      <use xlink:href="#DejaVuSans-32" x="294.873047"/>
     </g>
    </g>
    <g id="line2d_51">
     <path d="M 1007.655 323.386875 
L 1023.655 323.386875 
L 1039.655 323.386875 
" style="fill: none; stroke: #9467bd; stroke-width: 1.5; stroke-linecap: square"/>
    </g>
    <g id="text_44">
     <!-- Class 3 -->
     <g transform="translate(1052.455 328.986875) scale(0.16 -0.16)">
      <use xlink:href="#DejaVuSans-43"/>
      <use xlink:href="#DejaVuSans-6c" x="69.824219"/>
      <use xlink:href="#DejaVuSans-61" x="97.607422"/>
      <use xlink:href="#DejaVuSans-73" x="158.886719"/>
      <use xlink:href="#DejaVuSans-73" x="210.986328"/>
      <use xlink:href="#DejaVuSans-20" x="263.085938"/>
      <use xlink:href="#DejaVuSans-33" x="294.873047"/>
     </g>
    </g>
    <g id="line2d_52">
     <path d="M 1007.655 346.871875 
L 1023.655 346.871875 
L 1039.655 346.871875 
" style="fill: none; stroke: #e377c2; stroke-width: 1.5; stroke-linecap: square"/>
    </g>
    <g id="text_45">
     <!-- Class 4 -->
     <g transform="translate(1052.455 352.471875) scale(0.16 -0.16)">
      <use xlink:href="#DejaVuSans-43"/>
      <use xlink:href="#DejaVuSans-6c" x="69.824219"/>
      <use xlink:href="#DejaVuSans-61" x="97.607422"/>
      <use xlink:href="#DejaVuSans-73" x="158.886719"/>
      <use xlink:href="#DejaVuSans-73" x="210.986328"/>
      <use xlink:href="#DejaVuSans-20" x="263.085938"/>
      <use xlink:href="#DejaVuSans-34" x="294.873047"/>
     </g>
    </g>
    <g id="line2d_53">
     <path d="M 1007.655 370.356875 
L 1023.655 370.356875 
L 1039.655 370.356875 
" style="fill: none; stroke: #bcbd22; stroke-width: 1.5; stroke-linecap: square"/>
    </g>
    <g id="text_46">
     <!-- Class 5 -->
     <g transform="translate(1052.455 375.956875) scale(0.16 -0.16)">
      <use xlink:href="#DejaVuSans-43"/>
      <use xlink:href="#DejaVuSans-6c" x="69.824219"/>
      <use xlink:href="#DejaVuSans-61" x="97.607422"/>
      <use xlink:href="#DejaVuSans-73" x="158.886719"/>
      <use xlink:href="#DejaVuSans-73" x="210.986328"/>
      <use xlink:href="#DejaVuSans-20" x="263.085938"/>
      <use xlink:href="#DejaVuSans-35" x="294.873047"/>
     </g>
    </g>
    <g id="line2d_54">
     <path d="M 1007.655 393.841875 
L 1023.655 393.841875 
L 1039.655 393.841875 
" style="fill: none; stroke: #9edae5; stroke-width: 1.5; stroke-linecap: square"/>
    </g>
    <g id="text_47">
     <!-- Class 6 -->
     <g transform="translate(1052.455 399.441875) scale(0.16 -0.16)">
      <use xlink:href="#DejaVuSans-43"/>
      <use xlink:href="#DejaVuSans-6c" x="69.824219"/>
      <use xlink:href="#DejaVuSans-61" x="97.607422"/>
      <use xlink:href="#DejaVuSans-73" x="158.886719"/>
      <use xlink:href="#DejaVuSans-73" x="210.986328"/>
      <use xlink:href="#DejaVuSans-20" x="263.085938"/>
      <use xlink:href="#DejaVuSans-36" x="294.873047"/>
     </g>
    </g>
    <g id="line2d_55">
     <path d="M 1007.655 417.326875 
L 1023.655 417.326875 
L 1039.655 417.326875 
" style="fill: none; stroke-dasharray: 5,8.25; stroke-dashoffset: 0; stroke: #ff0000; stroke-width: 5"/>
    </g>
    <g id="text_48">
     <!-- Average -->
     <g transform="translate(1052.455 422.926875) scale(0.16 -0.16)">
      <defs>
       <path id="DejaVuSans-76" d="M 191 3500 
L 800 3500 
L 1894 563 
L 2988 3500 
L 3597 3500 
L 2284 0 
L 1503 0 
L 191 3500 
z
" transform="scale(0.015625)"/>
      </defs>
      <use xlink:href="#DejaVuSans-41"/>
      <use xlink:href="#DejaVuSans-76" x="62.533203"/>
      <use xlink:href="#DejaVuSans-65" x="121.712891"/>
      <use xlink:href="#DejaVuSans-72" x="183.236328"/>
      <use xlink:href="#DejaVuSans-61" x="224.349609"/>
      <use xlink:href="#DejaVuSans-67" x="285.628906"/>
      <use xlink:href="#DejaVuSans-65" x="349.105469"/>
     </g>
    </g>
   </g>
  </g>
 </g>
 <defs>
  <clipPath id="p341c9a453a">
   <rect x="88.580625" y="40.636875" width="482.789375" height="400.0175"/>
  </clipPath>
  <clipPath id="pf64750aac0">
   <rect x="649.770625" y="40.636875" width="482.789375" height="400.0175"/>
  </clipPath>
 </defs>
</svg>
