<?xml version="1.0" encoding="utf-8" standalone="no"?>
<!DOCTYPE svg PUBLIC "-//W3C//DTD SVG 1.1//EN"
  "http://www.w3.org/Graphics/SVG/1.1/DTD/svg11.dtd">
<svg xmlns:xlink="http://www.w3.org/1999/xlink" width="504pt" height="432pt" viewBox="0 0 504 432" xmlns="http://www.w3.org/2000/svg" version="1.1">
 <metadata>
  <rdf:RDF xmlns:dc="http://purl.org/dc/elements/1.1/" xmlns:cc="http://creativecommons.org/ns#" xmlns:rdf="http://www.w3.org/1999/02/22-rdf-syntax-ns#">
   <cc:Work>
    <dc:type rdf:resource="http://purl.org/dc/dcmitype/StillImage"/>
    <dc:date>2024-10-20T23:35:21.571124</dc:date>
    <dc:format>image/svg+xml</dc:format>
    <dc:creator>
     <cc:Agent>
      <dc:title>Matplotlib v3.9.2, https://matplotlib.org/</dc:title>
     </cc:Agent>
    </dc:creator>
   </cc:Work>
  </rdf:RDF>
 </metadata>
 <defs>
  <style type="text/css">*{stroke-linejoin: round; stroke-linecap: butt}</style>
 </defs>
 <g id="figure_1">
  <g id="patch_1">
   <path d="M 0 432 
L 504 432 
L 504 0 
L 0 0 
z
" style="fill: #ffffff"/>
  </g>
  <g id="axes_1">
   <g id="patch_2">
    <path d="M 78.400625 368.654375 
L 484.56 368.654375 
L 484.56 19.44 
L 78.400625 19.44 
z
" style="fill: #ffffff"/>
   </g>
   <g id="patch_3">
    <path d="M 96.862415 368.654375 
L 103.228549 368.654375 
L 103.228549 368.204327 
L 96.862415 368.204327 
z
" clip-path="url(#p7ed986a421)" style="fill: #c44e52; fill-opacity: 0.5"/>
   </g>
   <g id="patch_4">
    <path d="M 103.228549 368.654375 
L 109.594684 368.654375 
L 109.594684 368.654375 
L 103.228549 368.654375 
z
" clip-path="url(#p7ed986a421)" style="fill: #c44e52; fill-opacity: 0.5"/>
   </g>
   <g id="patch_5">
    <path d="M 109.594684 368.654375 
L 115.960818 368.654375 
L 115.960818 368.204327 
L 109.594684 368.204327 
z
" clip-path="url(#p7ed986a421)" style="fill: #c44e52; fill-opacity: 0.5"/>
   </g>
   <g id="patch_6">
    <path d="M 115.960818 368.654375 
L 122.326952 368.654375 
L 122.326952 367.304232 
L 115.960818 367.304232 
z
" clip-path="url(#p7ed986a421)" style="fill: #c44e52; fill-opacity: 0.5"/>
   </g>
   <g id="patch_7">
    <path d="M 122.326952 368.654375 
L 128.693087 368.654375 
L 128.693087 367.75428 
L 122.326952 367.75428 
z
" clip-path="url(#p7ed986a421)" style="fill: #c44e52; fill-opacity: 0.5"/>
   </g>
   <g id="patch_8">
    <path d="M 128.693087 368.654375 
L 135.059221 368.654375 
L 135.059221 367.304232 
L 128.693087 367.304232 
z
" clip-path="url(#p7ed986a421)" style="fill: #c44e52; fill-opacity: 0.5"/>
   </g>
   <g id="patch_9">
    <path d="M 135.059221 368.654375 
L 141.425356 368.654375 
L 141.425356 365.053995 
L 135.059221 365.053995 
z
" clip-path="url(#p7ed986a421)" style="fill: #c44e52; fill-opacity: 0.5"/>
   </g>
   <g id="patch_10">
    <path d="M 141.425356 368.654375 
L 147.79149 368.654375 
L 147.79149 366.404137 
L 141.425356 366.404137 
z
" clip-path="url(#p7ed986a421)" style="fill: #c44e52; fill-opacity: 0.5"/>
   </g>
   <g id="patch_11">
    <path d="M 147.79149 368.654375 
L 154.157624 368.654375 
L 154.157624 362.35371 
L 147.79149 362.35371 
z
" clip-path="url(#p7ed986a421)" style="fill: #c44e52; fill-opacity: 0.5"/>
   </g>
   <g id="patch_12">
    <path d="M 154.157624 368.654375 
L 160.523759 368.654375 
L 160.523759 363.253805 
L 154.157624 363.253805 
z
" clip-path="url(#p7ed986a421)" style="fill: #c44e52; fill-opacity: 0.5"/>
   </g>
   <g id="patch_13">
    <path d="M 160.523759 368.654375 
L 166.889893 368.654375 
L 166.889893 357.403187 
L 160.523759 357.403187 
z
" clip-path="url(#p7ed986a421)" style="fill: #c44e52; fill-opacity: 0.5"/>
   </g>
   <g id="patch_14">
    <path d="M 166.889893 368.654375 
L 173.256028 368.654375 
L 173.256028 353.352759 
L 166.889893 353.352759 
z
" clip-path="url(#p7ed986a421)" style="fill: #c44e52; fill-opacity: 0.5"/>
   </g>
   <g id="patch_15">
    <path d="M 173.256028 368.654375 
L 179.622162 368.654375 
L 179.622162 339.851334 
L 173.256028 339.851334 
z
" clip-path="url(#p7ed986a421)" style="fill: #c44e52; fill-opacity: 0.5"/>
   </g>
   <g id="patch_16">
    <path d="M 179.622162 368.654375 
L 185.988296 368.654375 
L 185.988296 311.948387 
L 179.622162 311.948387 
z
" clip-path="url(#p7ed986a421)" style="fill: #c44e52; fill-opacity: 0.5"/>
   </g>
   <g id="patch_17">
    <path d="M 185.988296 368.654375 
L 192.354431 368.654375 
L 192.354431 36.069256 
L 185.988296 36.069256 
z
" clip-path="url(#p7ed986a421)" style="fill: #c44e52; fill-opacity: 0.5"/>
   </g>
   <g id="patch_18">
    <path d="M 192.354431 368.654375 
L 198.720565 368.654375 
L 198.720565 122.928428 
L 192.354431 122.928428 
z
" clip-path="url(#p7ed986a421)" style="fill: #c44e52; fill-opacity: 0.5"/>
   </g>
   <g id="patch_19">
    <path d="M 198.720565 368.654375 
L 205.0867 368.654375 
L 205.0867 129.679141 
L 198.720565 129.679141 
z
" clip-path="url(#p7ed986a421)" style="fill: #c44e52; fill-opacity: 0.5"/>
   </g>
   <g id="patch_20">
    <path d="M 205.0867 368.654375 
L 211.452834 368.654375 
L 211.452834 183.684843 
L 205.0867 183.684843 
z
" clip-path="url(#p7ed986a421)" style="fill: #c44e52; fill-opacity: 0.5"/>
   </g>
   <g id="patch_21">
    <path d="M 211.452834 368.654375 
L 217.818968 368.654375 
L 217.818968 225.539263 
L 211.452834 225.539263 
z
" clip-path="url(#p7ed986a421)" style="fill: #c44e52; fill-opacity: 0.5"/>
   </g>
   <g id="patch_22">
    <path d="M 217.818968 368.654375 
L 224.185103 368.654375 
L 224.185103 225.539263 
L 217.818968 225.539263 
z
" clip-path="url(#p7ed986a421)" style="fill: #c44e52; fill-opacity: 0.5"/>
   </g>
   <g id="patch_23">
    <path d="M 224.185103 368.654375 
L 230.551237 368.654375 
L 230.551237 262.893207 
L 224.185103 262.893207 
z
" clip-path="url(#p7ed986a421)" style="fill: #c44e52; fill-opacity: 0.5"/>
   </g>
   <g id="patch_24">
    <path d="M 230.551237 368.654375 
L 236.917372 368.654375 
L 236.917372 289.896059 
L 230.551237 289.896059 
z
" clip-path="url(#p7ed986a421)" style="fill: #c44e52; fill-opacity: 0.5"/>
   </g>
   <g id="patch_25">
    <path d="M 236.917372 368.654375 
L 243.283506 368.654375 
L 243.283506 284.495488 
L 236.917372 284.495488 
z
" clip-path="url(#p7ed986a421)" style="fill: #c44e52; fill-opacity: 0.5"/>
   </g>
   <g id="patch_26">
    <path d="M 243.283506 368.654375 
L 249.64964 368.654375 
L 249.64964 303.847532 
L 243.283506 303.847532 
z
" clip-path="url(#p7ed986a421)" style="fill: #c44e52; fill-opacity: 0.5"/>
   </g>
   <g id="patch_27">
    <path d="M 249.64964 368.654375 
L 256.015775 368.654375 
L 256.015775 312.848482 
L 249.64964 312.848482 
z
" clip-path="url(#p7ed986a421)" style="fill: #c44e52; fill-opacity: 0.5"/>
   </g>
   <g id="patch_28">
    <path d="M 256.015775 368.654375 
L 262.381909 368.654375 
L 262.381909 329.500241 
L 256.015775 329.500241 
z
" clip-path="url(#p7ed986a421)" style="fill: #c44e52; fill-opacity: 0.5"/>
   </g>
   <g id="patch_29">
    <path d="M 262.381909 368.654375 
L 268.748044 368.654375 
L 268.748044 330.850383 
L 262.381909 330.850383 
z
" clip-path="url(#p7ed986a421)" style="fill: #c44e52; fill-opacity: 0.5"/>
   </g>
   <g id="patch_30">
    <path d="M 268.748044 368.654375 
L 275.114178 368.654375 
L 275.114178 341.201476 
L 268.748044 341.201476 
z
" clip-path="url(#p7ed986a421)" style="fill: #c44e52; fill-opacity: 0.5"/>
   </g>
   <g id="patch_31">
    <path d="M 275.114178 368.654375 
L 281.480312 368.654375 
L 281.480312 339.401286 
L 275.114178 339.401286 
z
" clip-path="url(#p7ed986a421)" style="fill: #c44e52; fill-opacity: 0.5"/>
   </g>
   <g id="patch_32">
    <path d="M 281.480312 368.654375 
L 287.846447 368.654375 
L 287.846447 349.302332 
L 281.480312 349.302332 
z
" clip-path="url(#p7ed986a421)" style="fill: #c44e52; fill-opacity: 0.5"/>
   </g>
   <g id="patch_33">
    <path d="M 287.846447 368.654375 
L 294.212581 368.654375 
L 294.212581 352.002617 
L 287.846447 352.002617 
z
" clip-path="url(#p7ed986a421)" style="fill: #c44e52; fill-opacity: 0.5"/>
   </g>
   <g id="patch_34">
    <path d="M 294.212581 368.654375 
L 300.578716 368.654375 
L 300.578716 352.902712 
L 294.212581 352.902712 
z
" clip-path="url(#p7ed986a421)" style="fill: #c44e52; fill-opacity: 0.5"/>
   </g>
   <g id="patch_35">
    <path d="M 300.578716 368.654375 
L 306.94485 368.654375 
L 306.94485 352.002617 
L 300.578716 352.002617 
z
" clip-path="url(#p7ed986a421)" style="fill: #c44e52; fill-opacity: 0.5"/>
   </g>
   <g id="patch_36">
    <path d="M 306.94485 368.654375 
L 313.310985 368.654375 
L 313.310985 359.203377 
L 306.94485 359.203377 
z
" clip-path="url(#p7ed986a421)" style="fill: #c44e52; fill-opacity: 0.5"/>
   </g>
   <g id="patch_37">
    <path d="M 313.310985 368.654375 
L 319.677119 368.654375 
L 319.677119 358.303282 
L 313.310985 358.303282 
z
" clip-path="url(#p7ed986a421)" style="fill: #c44e52; fill-opacity: 0.5"/>
   </g>
   <g id="patch_38">
    <path d="M 319.677119 368.654375 
L 326.043253 368.654375 
L 326.043253 358.303282 
L 319.677119 358.303282 
z
" clip-path="url(#p7ed986a421)" style="fill: #c44e52; fill-opacity: 0.5"/>
   </g>
   <g id="patch_39">
    <path d="M 326.043253 368.654375 
L 332.409388 368.654375 
L 332.409388 365.95409 
L 326.043253 365.95409 
z
" clip-path="url(#p7ed986a421)" style="fill: #c44e52; fill-opacity: 0.5"/>
   </g>
   <g id="patch_40">
    <path d="M 332.409388 368.654375 
L 338.775522 368.654375 
L 338.775522 358.303282 
L 332.409388 358.303282 
z
" clip-path="url(#p7ed986a421)" style="fill: #c44e52; fill-opacity: 0.5"/>
   </g>
   <g id="patch_41">
    <path d="M 338.775522 368.654375 
L 345.141657 368.654375 
L 345.141657 362.803757 
L 338.775522 362.803757 
z
" clip-path="url(#p7ed986a421)" style="fill: #c44e52; fill-opacity: 0.5"/>
   </g>
   <g id="patch_42">
    <path d="M 345.141657 368.654375 
L 351.507791 368.654375 
L 351.507791 363.253805 
L 345.141657 363.253805 
z
" clip-path="url(#p7ed986a421)" style="fill: #c44e52; fill-opacity: 0.5"/>
   </g>
   <g id="patch_43">
    <path d="M 351.507791 368.654375 
L 357.873925 368.654375 
L 357.873925 365.053995 
L 351.507791 365.053995 
z
" clip-path="url(#p7ed986a421)" style="fill: #c44e52; fill-opacity: 0.5"/>
   </g>
   <g id="patch_44">
    <path d="M 357.873925 368.654375 
L 364.24006 368.654375 
L 364.24006 366.854185 
L 357.873925 366.854185 
z
" clip-path="url(#p7ed986a421)" style="fill: #c44e52; fill-opacity: 0.5"/>
   </g>
   <g id="patch_45">
    <path d="M 364.24006 368.654375 
L 370.606194 368.654375 
L 370.606194 366.404137 
L 364.24006 366.404137 
z
" clip-path="url(#p7ed986a421)" style="fill: #c44e52; fill-opacity: 0.5"/>
   </g>
   <g id="patch_46">
    <path d="M 370.606194 368.654375 
L 376.972329 368.654375 
L 376.972329 365.95409 
L 370.606194 365.95409 
z
" clip-path="url(#p7ed986a421)" style="fill: #c44e52; fill-opacity: 0.5"/>
   </g>
   <g id="patch_47">
    <path d="M 376.972329 368.654375 
L 383.338463 368.654375 
L 383.338463 365.95409 
L 376.972329 365.95409 
z
" clip-path="url(#p7ed986a421)" style="fill: #c44e52; fill-opacity: 0.5"/>
   </g>
   <g id="patch_48">
    <path d="M 383.338463 368.654375 
L 389.704597 368.654375 
L 389.704597 366.404137 
L 383.338463 366.404137 
z
" clip-path="url(#p7ed986a421)" style="fill: #c44e52; fill-opacity: 0.5"/>
   </g>
   <g id="patch_49">
    <path d="M 389.704597 368.654375 
L 396.070732 368.654375 
L 396.070732 366.854185 
L 389.704597 366.854185 
z
" clip-path="url(#p7ed986a421)" style="fill: #c44e52; fill-opacity: 0.5"/>
   </g>
   <g id="patch_50">
    <path d="M 396.070732 368.654375 
L 402.436866 368.654375 
L 402.436866 367.75428 
L 396.070732 367.75428 
z
" clip-path="url(#p7ed986a421)" style="fill: #c44e52; fill-opacity: 0.5"/>
   </g>
   <g id="patch_51">
    <path d="M 402.436866 368.654375 
L 408.803001 368.654375 
L 408.803001 367.304232 
L 402.436866 367.304232 
z
" clip-path="url(#p7ed986a421)" style="fill: #c44e52; fill-opacity: 0.5"/>
   </g>
   <g id="patch_52">
    <path d="M 408.803001 368.654375 
L 415.169135 368.654375 
L 415.169135 368.204327 
L 408.803001 368.204327 
z
" clip-path="url(#p7ed986a421)" style="fill: #c44e52; fill-opacity: 0.5"/>
   </g>
   <g id="patch_53">
    <path d="M 415.169135 368.654375 
L 421.535269 368.654375 
L 421.535269 367.304232 
L 415.169135 367.304232 
z
" clip-path="url(#p7ed986a421)" style="fill: #c44e52; fill-opacity: 0.5"/>
   </g>
   <g id="patch_54">
    <path d="M 421.535269 368.654375 
L 427.901404 368.654375 
L 427.901404 368.204327 
L 421.535269 368.204327 
z
" clip-path="url(#p7ed986a421)" style="fill: #c44e52; fill-opacity: 0.5"/>
   </g>
   <g id="patch_55">
    <path d="M 427.901404 368.654375 
L 434.267538 368.654375 
L 434.267538 368.654375 
L 427.901404 368.654375 
z
" clip-path="url(#p7ed986a421)" style="fill: #c44e52; fill-opacity: 0.5"/>
   </g>
   <g id="patch_56">
    <path d="M 434.267538 368.654375 
L 440.633673 368.654375 
L 440.633673 368.204327 
L 434.267538 368.204327 
z
" clip-path="url(#p7ed986a421)" style="fill: #c44e52; fill-opacity: 0.5"/>
   </g>
   <g id="patch_57">
    <path d="M 440.633673 368.654375 
L 446.999807 368.654375 
L 446.999807 367.75428 
L 440.633673 367.75428 
z
" clip-path="url(#p7ed986a421)" style="fill: #c44e52; fill-opacity: 0.5"/>
   </g>
   <g id="patch_58">
    <path d="M 446.999807 368.654375 
L 453.365941 368.654375 
L 453.365941 368.654375 
L 446.999807 368.654375 
z
" clip-path="url(#p7ed986a421)" style="fill: #c44e52; fill-opacity: 0.5"/>
   </g>
   <g id="patch_59">
    <path d="M 453.365941 368.654375 
L 459.732076 368.654375 
L 459.732076 368.654375 
L 453.365941 368.654375 
z
" clip-path="url(#p7ed986a421)" style="fill: #c44e52; fill-opacity: 0.5"/>
   </g>
   <g id="patch_60">
    <path d="M 459.732076 368.654375 
L 466.09821 368.654375 
L 466.09821 368.204327 
L 459.732076 368.204327 
z
" clip-path="url(#p7ed986a421)" style="fill: #c44e52; fill-opacity: 0.5"/>
   </g>
   <g id="patch_61">
    <path d="M 96.862415 368.654375 
L 103.228549 368.654375 
L 103.228549 287.645821 
L 96.862415 287.645821 
z
" clip-path="url(#p7ed986a421)" style="fill: #55a868; fill-opacity: 0.5"/>
   </g>
   <g id="patch_62">
    <path d="M 103.228549 368.654375 
L 109.594684 368.654375 
L 109.594684 195.386079 
L 103.228549 195.386079 
z
" clip-path="url(#p7ed986a421)" style="fill: #55a868; fill-opacity: 0.5"/>
   </g>
   <g id="patch_63">
    <path d="M 109.594684 368.654375 
L 115.960818 368.654375 
L 115.960818 243.541164 
L 109.594684 243.541164 
z
" clip-path="url(#p7ed986a421)" style="fill: #55a868; fill-opacity: 0.5"/>
   </g>
   <g id="patch_64">
    <path d="M 115.960818 368.654375 
L 122.326952 368.654375 
L 122.326952 240.390831 
L 115.960818 240.390831 
z
" clip-path="url(#p7ed986a421)" style="fill: #55a868; fill-opacity: 0.5"/>
   </g>
   <g id="patch_65">
    <path d="M 122.326952 368.654375 
L 128.693087 368.654375 
L 128.693087 319.149148 
L 122.326952 319.149148 
z
" clip-path="url(#p7ed986a421)" style="fill: #55a868; fill-opacity: 0.5"/>
   </g>
   <g id="patch_66">
    <path d="M 128.693087 368.654375 
L 135.059221 368.654375 
L 135.059221 240.390831 
L 128.693087 240.390831 
z
" clip-path="url(#p7ed986a421)" style="fill: #55a868; fill-opacity: 0.5"/>
   </g>
   <g id="patch_67">
    <path d="M 135.059221 368.654375 
L 141.425356 368.654375 
L 141.425356 244.441259 
L 135.059221 244.441259 
z
" clip-path="url(#p7ed986a421)" style="fill: #55a868; fill-opacity: 0.5"/>
   </g>
   <g id="patch_68">
    <path d="M 141.425356 368.654375 
L 147.79149 368.654375 
L 147.79149 246.691496 
L 141.425356 246.691496 
z
" clip-path="url(#p7ed986a421)" style="fill: #55a868; fill-opacity: 0.5"/>
   </g>
   <g id="patch_69">
    <path d="M 147.79149 368.654375 
L 154.157624 368.654375 
L 154.157624 259.742875 
L 147.79149 259.742875 
z
" clip-path="url(#p7ed986a421)" style="fill: #55a868; fill-opacity: 0.5"/>
   </g>
   <g id="patch_70">
    <path d="M 154.157624 368.654375 
L 160.523759 368.654375 
L 160.523759 297.546866 
L 154.157624 297.546866 
z
" clip-path="url(#p7ed986a421)" style="fill: #55a868; fill-opacity: 0.5"/>
   </g>
   <g id="patch_71">
    <path d="M 160.523759 368.654375 
L 166.889893 368.654375 
L 166.889893 252.992162 
L 160.523759 252.992162 
z
" clip-path="url(#p7ed986a421)" style="fill: #55a868; fill-opacity: 0.5"/>
   </g>
   <g id="patch_72">
    <path d="M 166.889893 368.654375 
L 173.256028 368.654375 
L 173.256028 277.294728 
L 166.889893 277.294728 
z
" clip-path="url(#p7ed986a421)" style="fill: #55a868; fill-opacity: 0.5"/>
   </g>
   <g id="patch_73">
    <path d="M 173.256028 368.654375 
L 179.622162 368.654375 
L 179.622162 291.696249 
L 173.256028 291.696249 
z
" clip-path="url(#p7ed986a421)" style="fill: #55a868; fill-opacity: 0.5"/>
   </g>
   <g id="patch_74">
    <path d="M 179.622162 368.654375 
L 185.988296 368.654375 
L 185.988296 311.048292 
L 179.622162 311.048292 
z
" clip-path="url(#p7ed986a421)" style="fill: #55a868; fill-opacity: 0.5"/>
   </g>
   <g id="patch_75">
    <path d="M 185.988296 368.654375 
L 192.354431 368.654375 
L 192.354431 311.948387 
L 185.988296 311.948387 
z
" clip-path="url(#p7ed986a421)" style="fill: #55a868; fill-opacity: 0.5"/>
   </g>
   <g id="patch_76">
    <path d="M 192.354431 368.654375 
L 198.720565 368.654375 
L 198.720565 297.546866 
L 192.354431 297.546866 
z
" clip-path="url(#p7ed986a421)" style="fill: #55a868; fill-opacity: 0.5"/>
   </g>
   <g id="patch_77">
    <path d="M 198.720565 368.654375 
L 205.0867 368.654375 
L 205.0867 304.297579 
L 198.720565 304.297579 
z
" clip-path="url(#p7ed986a421)" style="fill: #55a868; fill-opacity: 0.5"/>
   </g>
   <g id="patch_78">
    <path d="M 205.0867 368.654375 
L 211.452834 368.654375 
L 211.452834 325.449813 
L 205.0867 325.449813 
z
" clip-path="url(#p7ed986a421)" style="fill: #55a868; fill-opacity: 0.5"/>
   </g>
   <g id="patch_79">
    <path d="M 211.452834 368.654375 
L 217.818968 368.654375 
L 217.818968 323.649623 
L 211.452834 323.649623 
z
" clip-path="url(#p7ed986a421)" style="fill: #55a868; fill-opacity: 0.5"/>
   </g>
   <g id="patch_80">
    <path d="M 217.818968 368.654375 
L 224.185103 368.654375 
L 224.185103 333.100621 
L 217.818968 333.100621 
z
" clip-path="url(#p7ed986a421)" style="fill: #55a868; fill-opacity: 0.5"/>
   </g>
   <g id="patch_81">
    <path d="M 224.185103 368.654375 
L 230.551237 368.654375 
L 230.551237 329.950288 
L 224.185103 329.950288 
z
" clip-path="url(#p7ed986a421)" style="fill: #55a868; fill-opacity: 0.5"/>
   </g>
   <g id="patch_82">
    <path d="M 230.551237 368.654375 
L 236.917372 368.654375 
L 236.917372 329.500241 
L 230.551237 329.500241 
z
" clip-path="url(#p7ed986a421)" style="fill: #55a868; fill-opacity: 0.5"/>
   </g>
   <g id="patch_83">
    <path d="M 236.917372 368.654375 
L 243.283506 368.654375 
L 243.283506 342.551619 
L 236.917372 342.551619 
z
" clip-path="url(#p7ed986a421)" style="fill: #55a868; fill-opacity: 0.5"/>
   </g>
   <g id="patch_84">
    <path d="M 243.283506 368.654375 
L 249.64964 368.654375 
L 249.64964 341.201476 
L 243.283506 341.201476 
z
" clip-path="url(#p7ed986a421)" style="fill: #55a868; fill-opacity: 0.5"/>
   </g>
   <g id="patch_85">
    <path d="M 249.64964 368.654375 
L 256.015775 368.654375 
L 256.015775 344.351809 
L 249.64964 344.351809 
z
" clip-path="url(#p7ed986a421)" style="fill: #55a868; fill-opacity: 0.5"/>
   </g>
   <g id="patch_86">
    <path d="M 256.015775 368.654375 
L 262.381909 368.654375 
L 262.381909 339.851334 
L 256.015775 339.851334 
z
" clip-path="url(#p7ed986a421)" style="fill: #55a868; fill-opacity: 0.5"/>
   </g>
   <g id="patch_87">
    <path d="M 262.381909 368.654375 
L 268.748044 368.654375 
L 268.748044 350.652474 
L 262.381909 350.652474 
z
" clip-path="url(#p7ed986a421)" style="fill: #55a868; fill-opacity: 0.5"/>
   </g>
   <g id="patch_88">
    <path d="M 268.748044 368.654375 
L 275.114178 368.654375 
L 275.114178 352.452664 
L 268.748044 352.452664 
z
" clip-path="url(#p7ed986a421)" style="fill: #55a868; fill-opacity: 0.5"/>
   </g>
   <g id="patch_89">
    <path d="M 275.114178 368.654375 
L 281.480312 368.654375 
L 281.480312 355.152949 
L 275.114178 355.152949 
z
" clip-path="url(#p7ed986a421)" style="fill: #55a868; fill-opacity: 0.5"/>
   </g>
   <g id="patch_90">
    <path d="M 281.480312 368.654375 
L 287.846447 368.654375 
L 287.846447 361.003567 
L 281.480312 361.003567 
z
" clip-path="url(#p7ed986a421)" style="fill: #55a868; fill-opacity: 0.5"/>
   </g>
   <g id="patch_91">
    <path d="M 287.846447 368.654375 
L 294.212581 368.654375 
L 294.212581 358.75333 
L 287.846447 358.75333 
z
" clip-path="url(#p7ed986a421)" style="fill: #55a868; fill-opacity: 0.5"/>
   </g>
   <g id="patch_92">
    <path d="M 294.212581 368.654375 
L 300.578716 368.654375 
L 300.578716 361.003567 
L 294.212581 361.003567 
z
" clip-path="url(#p7ed986a421)" style="fill: #55a868; fill-opacity: 0.5"/>
   </g>
   <g id="patch_93">
    <path d="M 300.578716 368.654375 
L 306.94485 368.654375 
L 306.94485 361.903662 
L 300.578716 361.903662 
z
" clip-path="url(#p7ed986a421)" style="fill: #55a868; fill-opacity: 0.5"/>
   </g>
   <g id="patch_94">
    <path d="M 306.94485 368.654375 
L 313.310985 368.654375 
L 313.310985 361.453615 
L 306.94485 361.453615 
z
" clip-path="url(#p7ed986a421)" style="fill: #55a868; fill-opacity: 0.5"/>
   </g>
   <g id="patch_95">
    <path d="M 313.310985 368.654375 
L 319.677119 368.654375 
L 319.677119 362.35371 
L 313.310985 362.35371 
z
" clip-path="url(#p7ed986a421)" style="fill: #55a868; fill-opacity: 0.5"/>
   </g>
   <g id="patch_96">
    <path d="M 319.677119 368.654375 
L 326.043253 368.654375 
L 326.043253 361.003567 
L 319.677119 361.003567 
z
" clip-path="url(#p7ed986a421)" style="fill: #55a868; fill-opacity: 0.5"/>
   </g>
   <g id="patch_97">
    <path d="M 326.043253 368.654375 
L 332.409388 368.654375 
L 332.409388 362.35371 
L 326.043253 362.35371 
z
" clip-path="url(#p7ed986a421)" style="fill: #55a868; fill-opacity: 0.5"/>
   </g>
   <g id="patch_98">
    <path d="M 332.409388 368.654375 
L 338.775522 368.654375 
L 338.775522 365.053995 
L 332.409388 365.053995 
z
" clip-path="url(#p7ed986a421)" style="fill: #55a868; fill-opacity: 0.5"/>
   </g>
   <g id="patch_99">
    <path d="M 338.775522 368.654375 
L 345.141657 368.654375 
L 345.141657 361.903662 
L 338.775522 361.903662 
z
" clip-path="url(#p7ed986a421)" style="fill: #55a868; fill-opacity: 0.5"/>
   </g>
   <g id="patch_100">
    <path d="M 345.141657 368.654375 
L 351.507791 368.654375 
L 351.507791 365.504042 
L 345.141657 365.504042 
z
" clip-path="url(#p7ed986a421)" style="fill: #55a868; fill-opacity: 0.5"/>
   </g>
   <g id="patch_101">
    <path d="M 351.507791 368.654375 
L 357.873925 368.654375 
L 357.873925 365.504042 
L 351.507791 365.504042 
z
" clip-path="url(#p7ed986a421)" style="fill: #55a868; fill-opacity: 0.5"/>
   </g>
   <g id="patch_102">
    <path d="M 357.873925 368.654375 
L 364.24006 368.654375 
L 364.24006 365.95409 
L 357.873925 365.95409 
z
" clip-path="url(#p7ed986a421)" style="fill: #55a868; fill-opacity: 0.5"/>
   </g>
   <g id="patch_103">
    <path d="M 364.24006 368.654375 
L 370.606194 368.654375 
L 370.606194 366.854185 
L 364.24006 366.854185 
z
" clip-path="url(#p7ed986a421)" style="fill: #55a868; fill-opacity: 0.5"/>
   </g>
   <g id="patch_104">
    <path d="M 370.606194 368.654375 
L 376.972329 368.654375 
L 376.972329 366.854185 
L 370.606194 366.854185 
z
" clip-path="url(#p7ed986a421)" style="fill: #55a868; fill-opacity: 0.5"/>
   </g>
   <g id="patch_105">
    <path d="M 376.972329 368.654375 
L 383.338463 368.654375 
L 383.338463 367.75428 
L 376.972329 367.75428 
z
" clip-path="url(#p7ed986a421)" style="fill: #55a868; fill-opacity: 0.5"/>
   </g>
   <g id="patch_106">
    <path d="M 383.338463 368.654375 
L 389.704597 368.654375 
L 389.704597 368.204327 
L 383.338463 368.204327 
z
" clip-path="url(#p7ed986a421)" style="fill: #55a868; fill-opacity: 0.5"/>
   </g>
   <g id="patch_107">
    <path d="M 389.704597 368.654375 
L 396.070732 368.654375 
L 396.070732 367.75428 
L 389.704597 367.75428 
z
" clip-path="url(#p7ed986a421)" style="fill: #55a868; fill-opacity: 0.5"/>
   </g>
   <g id="patch_108">
    <path d="M 396.070732 368.654375 
L 402.436866 368.654375 
L 402.436866 368.654375 
L 396.070732 368.654375 
z
" clip-path="url(#p7ed986a421)" style="fill: #55a868; fill-opacity: 0.5"/>
   </g>
   <g id="patch_109">
    <path d="M 402.436866 368.654375 
L 408.803001 368.654375 
L 408.803001 366.854185 
L 402.436866 366.854185 
z
" clip-path="url(#p7ed986a421)" style="fill: #55a868; fill-opacity: 0.5"/>
   </g>
   <g id="patch_110">
    <path d="M 408.803001 368.654375 
L 415.169135 368.654375 
L 415.169135 368.654375 
L 408.803001 368.654375 
z
" clip-path="url(#p7ed986a421)" style="fill: #55a868; fill-opacity: 0.5"/>
   </g>
   <g id="patch_111">
    <path d="M 415.169135 368.654375 
L 421.535269 368.654375 
L 421.535269 366.854185 
L 415.169135 366.854185 
z
" clip-path="url(#p7ed986a421)" style="fill: #55a868; fill-opacity: 0.5"/>
   </g>
   <g id="patch_112">
    <path d="M 421.535269 368.654375 
L 427.901404 368.654375 
L 427.901404 367.75428 
L 421.535269 367.75428 
z
" clip-path="url(#p7ed986a421)" style="fill: #55a868; fill-opacity: 0.5"/>
   </g>
   <g id="patch_113">
    <path d="M 427.901404 368.654375 
L 434.267538 368.654375 
L 434.267538 367.75428 
L 427.901404 367.75428 
z
" clip-path="url(#p7ed986a421)" style="fill: #55a868; fill-opacity: 0.5"/>
   </g>
   <g id="patch_114">
    <path d="M 434.267538 368.654375 
L 440.633673 368.654375 
L 440.633673 368.654375 
L 434.267538 368.654375 
z
" clip-path="url(#p7ed986a421)" style="fill: #55a868; fill-opacity: 0.5"/>
   </g>
   <g id="patch_115">
    <path d="M 440.633673 368.654375 
L 446.999807 368.654375 
L 446.999807 368.654375 
L 440.633673 368.654375 
z
" clip-path="url(#p7ed986a421)" style="fill: #55a868; fill-opacity: 0.5"/>
   </g>
   <g id="patch_116">
    <path d="M 446.999807 368.654375 
L 453.365941 368.654375 
L 453.365941 368.654375 
L 446.999807 368.654375 
z
" clip-path="url(#p7ed986a421)" style="fill: #55a868; fill-opacity: 0.5"/>
   </g>
   <g id="patch_117">
    <path d="M 453.365941 368.654375 
L 459.732076 368.654375 
L 459.732076 368.654375 
L 453.365941 368.654375 
z
" clip-path="url(#p7ed986a421)" style="fill: #55a868; fill-opacity: 0.5"/>
   </g>
   <g id="patch_118">
    <path d="M 459.732076 368.654375 
L 466.09821 368.654375 
L 466.09821 368.204327 
L 459.732076 368.204327 
z
" clip-path="url(#p7ed986a421)" style="fill: #55a868; fill-opacity: 0.5"/>
   </g>
   <g id="patch_119">
    <path d="M 96.862415 368.654375 
L 103.228549 368.654375 
L 103.228549 366.404137 
L 96.862415 366.404137 
z
" clip-path="url(#p7ed986a421)" style="fill: #dd8452; fill-opacity: 0.5"/>
   </g>
   <g id="patch_120">
    <path d="M 103.228549 368.654375 
L 109.594684 368.654375 
L 109.594684 350.652474 
L 103.228549 350.652474 
z
" clip-path="url(#p7ed986a421)" style="fill: #dd8452; fill-opacity: 0.5"/>
   </g>
   <g id="patch_121">
    <path d="M 109.594684 368.654375 
L 115.960818 368.654375 
L 115.960818 344.351809 
L 109.594684 344.351809 
z
" clip-path="url(#p7ed986a421)" style="fill: #dd8452; fill-opacity: 0.5"/>
   </g>
   <g id="patch_122">
    <path d="M 115.960818 368.654375 
L 122.326952 368.654375 
L 122.326952 322.749528 
L 115.960818 322.749528 
z
" clip-path="url(#p7ed986a421)" style="fill: #dd8452; fill-opacity: 0.5"/>
   </g>
   <g id="patch_123">
    <path d="M 122.326952 368.654375 
L 128.693087 368.654375 
L 128.693087 311.948387 
L 122.326952 311.948387 
z
" clip-path="url(#p7ed986a421)" style="fill: #dd8452; fill-opacity: 0.5"/>
   </g>
   <g id="patch_124">
    <path d="M 128.693087 368.654375 
L 135.059221 368.654375 
L 135.059221 287.195773 
L 128.693087 287.195773 
z
" clip-path="url(#p7ed986a421)" style="fill: #dd8452; fill-opacity: 0.5"/>
   </g>
   <g id="patch_125">
    <path d="M 135.059221 368.654375 
L 141.425356 368.654375 
L 141.425356 276.394633 
L 135.059221 276.394633 
z
" clip-path="url(#p7ed986a421)" style="fill: #dd8452; fill-opacity: 0.5"/>
   </g>
   <g id="patch_126">
    <path d="M 141.425356 368.654375 
L 147.79149 368.654375 
L 147.79149 368.654375 
L 141.425356 368.654375 
z
" clip-path="url(#p7ed986a421)" style="fill: #dd8452; fill-opacity: 0.5"/>
   </g>
   <g id="patch_127">
    <path d="M 147.79149 368.654375 
L 154.157624 368.654375 
L 154.157624 262.44316 
L 147.79149 262.44316 
z
" clip-path="url(#p7ed986a421)" style="fill: #dd8452; fill-opacity: 0.5"/>
   </g>
   <g id="patch_128">
    <path d="M 154.157624 368.654375 
L 160.523759 368.654375 
L 160.523759 267.84373 
L 154.157624 267.84373 
z
" clip-path="url(#p7ed986a421)" style="fill: #dd8452; fill-opacity: 0.5"/>
   </g>
   <g id="patch_129">
    <path d="M 160.523759 368.654375 
L 166.889893 368.654375 
L 166.889893 271.44411 
L 160.523759 271.44411 
z
" clip-path="url(#p7ed986a421)" style="fill: #dd8452; fill-opacity: 0.5"/>
   </g>
   <g id="patch_130">
    <path d="M 166.889893 368.654375 
L 173.256028 368.654375 
L 173.256028 238.590641 
L 166.889893 238.590641 
z
" clip-path="url(#p7ed986a421)" style="fill: #dd8452; fill-opacity: 0.5"/>
   </g>
   <g id="patch_131">
    <path d="M 173.256028 368.654375 
L 179.622162 368.654375 
L 179.622162 249.391782 
L 173.256028 249.391782 
z
" clip-path="url(#p7ed986a421)" style="fill: #dd8452; fill-opacity: 0.5"/>
   </g>
   <g id="patch_132">
    <path d="M 179.622162 368.654375 
L 185.988296 368.654375 
L 185.988296 262.44316 
L 179.622162 262.44316 
z
" clip-path="url(#p7ed986a421)" style="fill: #dd8452; fill-opacity: 0.5"/>
   </g>
   <g id="patch_133">
    <path d="M 185.988296 368.654375 
L 192.354431 368.654375 
L 192.354431 368.654375 
L 185.988296 368.654375 
z
" clip-path="url(#p7ed986a421)" style="fill: #dd8452; fill-opacity: 0.5"/>
   </g>
   <g id="patch_134">
    <path d="M 192.354431 368.654375 
L 198.720565 368.654375 
L 198.720565 261.093017 
L 192.354431 261.093017 
z
" clip-path="url(#p7ed986a421)" style="fill: #dd8452; fill-opacity: 0.5"/>
   </g>
   <g id="patch_135">
    <path d="M 198.720565 368.654375 
L 205.0867 368.654375 
L 205.0867 272.344205 
L 198.720565 272.344205 
z
" clip-path="url(#p7ed986a421)" style="fill: #dd8452; fill-opacity: 0.5"/>
   </g>
   <g id="patch_136">
    <path d="M 205.0867 368.654375 
L 211.452834 368.654375 
L 211.452834 265.593492 
L 205.0867 265.593492 
z
" clip-path="url(#p7ed986a421)" style="fill: #dd8452; fill-opacity: 0.5"/>
   </g>
   <g id="patch_137">
    <path d="M 211.452834 368.654375 
L 217.818968 368.654375 
L 217.818968 275.04449 
L 211.452834 275.04449 
z
" clip-path="url(#p7ed986a421)" style="fill: #dd8452; fill-opacity: 0.5"/>
   </g>
   <g id="patch_138">
    <path d="M 217.818968 368.654375 
L 224.185103 368.654375 
L 224.185103 289.896059 
L 217.818968 289.896059 
z
" clip-path="url(#p7ed986a421)" style="fill: #dd8452; fill-opacity: 0.5"/>
   </g>
   <g id="patch_139">
    <path d="M 224.185103 368.654375 
L 230.551237 368.654375 
L 230.551237 292.596344 
L 224.185103 292.596344 
z
" clip-path="url(#p7ed986a421)" style="fill: #dd8452; fill-opacity: 0.5"/>
   </g>
   <g id="patch_140">
    <path d="M 230.551237 368.654375 
L 236.917372 368.654375 
L 236.917372 368.654375 
L 230.551237 368.654375 
z
" clip-path="url(#p7ed986a421)" style="fill: #dd8452; fill-opacity: 0.5"/>
   </g>
   <g id="patch_141">
    <path d="M 236.917372 368.654375 
L 243.283506 368.654375 
L 243.283506 292.146296 
L 236.917372 292.146296 
z
" clip-path="url(#p7ed986a421)" style="fill: #dd8452; fill-opacity: 0.5"/>
   </g>
   <g id="patch_142">
    <path d="M 243.283506 368.654375 
L 249.64964 368.654375 
L 249.64964 308.798055 
L 243.283506 308.798055 
z
" clip-path="url(#p7ed986a421)" style="fill: #dd8452; fill-opacity: 0.5"/>
   </g>
   <g id="patch_143">
    <path d="M 249.64964 368.654375 
L 256.015775 368.654375 
L 256.015775 310.148197 
L 249.64964 310.148197 
z
" clip-path="url(#p7ed986a421)" style="fill: #dd8452; fill-opacity: 0.5"/>
   </g>
   <g id="patch_144">
    <path d="M 256.015775 368.654375 
L 262.381909 368.654375 
L 262.381909 312.398435 
L 256.015775 312.398435 
z
" clip-path="url(#p7ed986a421)" style="fill: #dd8452; fill-opacity: 0.5"/>
   </g>
   <g id="patch_145">
    <path d="M 262.381909 368.654375 
L 268.748044 368.654375 
L 268.748044 327.70005 
L 262.381909 327.70005 
z
" clip-path="url(#p7ed986a421)" style="fill: #dd8452; fill-opacity: 0.5"/>
   </g>
   <g id="patch_146">
    <path d="M 268.748044 368.654375 
L 275.114178 368.654375 
L 275.114178 324.549718 
L 268.748044 324.549718 
z
" clip-path="url(#p7ed986a421)" style="fill: #dd8452; fill-opacity: 0.5"/>
   </g>
   <g id="patch_147">
    <path d="M 275.114178 368.654375 
L 281.480312 368.654375 
L 281.480312 368.654375 
L 275.114178 368.654375 
z
" clip-path="url(#p7ed986a421)" style="fill: #dd8452; fill-opacity: 0.5"/>
   </g>
   <g id="patch_148">
    <path d="M 281.480312 368.654375 
L 287.846447 368.654375 
L 287.846447 339.401286 
L 281.480312 339.401286 
z
" clip-path="url(#p7ed986a421)" style="fill: #dd8452; fill-opacity: 0.5"/>
   </g>
   <g id="patch_149">
    <path d="M 287.846447 368.654375 
L 294.212581 368.654375 
L 294.212581 341.651524 
L 287.846447 341.651524 
z
" clip-path="url(#p7ed986a421)" style="fill: #dd8452; fill-opacity: 0.5"/>
   </g>
   <g id="patch_150">
    <path d="M 294.212581 368.654375 
L 300.578716 368.654375 
L 300.578716 342.551619 
L 294.212581 342.551619 
z
" clip-path="url(#p7ed986a421)" style="fill: #dd8452; fill-opacity: 0.5"/>
   </g>
   <g id="patch_151">
    <path d="M 300.578716 368.654375 
L 306.94485 368.654375 
L 306.94485 344.351809 
L 300.578716 344.351809 
z
" clip-path="url(#p7ed986a421)" style="fill: #dd8452; fill-opacity: 0.5"/>
   </g>
   <g id="patch_152">
    <path d="M 306.94485 368.654375 
L 313.310985 368.654375 
L 313.310985 346.151999 
L 306.94485 346.151999 
z
" clip-path="url(#p7ed986a421)" style="fill: #dd8452; fill-opacity: 0.5"/>
   </g>
   <g id="patch_153">
    <path d="M 313.310985 368.654375 
L 319.677119 368.654375 
L 319.677119 351.102522 
L 313.310985 351.102522 
z
" clip-path="url(#p7ed986a421)" style="fill: #dd8452; fill-opacity: 0.5"/>
   </g>
   <g id="patch_154">
    <path d="M 319.677119 368.654375 
L 326.043253 368.654375 
L 326.043253 350.202427 
L 319.677119 350.202427 
z
" clip-path="url(#p7ed986a421)" style="fill: #dd8452; fill-opacity: 0.5"/>
   </g>
   <g id="patch_155">
    <path d="M 326.043253 368.654375 
L 332.409388 368.654375 
L 332.409388 368.654375 
L 326.043253 368.654375 
z
" clip-path="url(#p7ed986a421)" style="fill: #dd8452; fill-opacity: 0.5"/>
   </g>
   <g id="patch_156">
    <path d="M 332.409388 368.654375 
L 338.775522 368.654375 
L 338.775522 358.303282 
L 332.409388 358.303282 
z
" clip-path="url(#p7ed986a421)" style="fill: #dd8452; fill-opacity: 0.5"/>
   </g>
   <g id="patch_157">
    <path d="M 338.775522 368.654375 
L 345.141657 368.654375 
L 345.141657 361.003567 
L 338.775522 361.003567 
z
" clip-path="url(#p7ed986a421)" style="fill: #dd8452; fill-opacity: 0.5"/>
   </g>
   <g id="patch_158">
    <path d="M 345.141657 368.654375 
L 351.507791 368.654375 
L 351.507791 359.203377 
L 345.141657 359.203377 
z
" clip-path="url(#p7ed986a421)" style="fill: #dd8452; fill-opacity: 0.5"/>
   </g>
   <g id="patch_159">
    <path d="M 351.507791 368.654375 
L 357.873925 368.654375 
L 357.873925 365.053995 
L 351.507791 365.053995 
z
" clip-path="url(#p7ed986a421)" style="fill: #dd8452; fill-opacity: 0.5"/>
   </g>
   <g id="patch_160">
    <path d="M 357.873925 368.654375 
L 364.24006 368.654375 
L 364.24006 362.803757 
L 357.873925 362.803757 
z
" clip-path="url(#p7ed986a421)" style="fill: #dd8452; fill-opacity: 0.5"/>
   </g>
   <g id="patch_161">
    <path d="M 364.24006 368.654375 
L 370.606194 368.654375 
L 370.606194 365.053995 
L 364.24006 365.053995 
z
" clip-path="url(#p7ed986a421)" style="fill: #dd8452; fill-opacity: 0.5"/>
   </g>
   <g id="patch_162">
    <path d="M 370.606194 368.654375 
L 376.972329 368.654375 
L 376.972329 368.654375 
L 370.606194 368.654375 
z
" clip-path="url(#p7ed986a421)" style="fill: #dd8452; fill-opacity: 0.5"/>
   </g>
   <g id="patch_163">
    <path d="M 376.972329 368.654375 
L 383.338463 368.654375 
L 383.338463 363.703852 
L 376.972329 363.703852 
z
" clip-path="url(#p7ed986a421)" style="fill: #dd8452; fill-opacity: 0.5"/>
   </g>
   <g id="patch_164">
    <path d="M 383.338463 368.654375 
L 389.704597 368.654375 
L 389.704597 366.404137 
L 383.338463 366.404137 
z
" clip-path="url(#p7ed986a421)" style="fill: #dd8452; fill-opacity: 0.5"/>
   </g>
   <g id="patch_165">
    <path d="M 389.704597 368.654375 
L 396.070732 368.654375 
L 396.070732 366.854185 
L 389.704597 366.854185 
z
" clip-path="url(#p7ed986a421)" style="fill: #dd8452; fill-opacity: 0.5"/>
   </g>
   <g id="patch_166">
    <path d="M 396.070732 368.654375 
L 402.436866 368.654375 
L 402.436866 368.654375 
L 396.070732 368.654375 
z
" clip-path="url(#p7ed986a421)" style="fill: #dd8452; fill-opacity: 0.5"/>
   </g>
   <g id="patch_167">
    <path d="M 402.436866 368.654375 
L 408.803001 368.654375 
L 408.803001 366.404137 
L 402.436866 366.404137 
z
" clip-path="url(#p7ed986a421)" style="fill: #dd8452; fill-opacity: 0.5"/>
   </g>
   <g id="patch_168">
    <path d="M 408.803001 368.654375 
L 415.169135 368.654375 
L 415.169135 368.204327 
L 408.803001 368.204327 
z
" clip-path="url(#p7ed986a421)" style="fill: #dd8452; fill-opacity: 0.5"/>
   </g>
   <g id="patch_169">
    <path d="M 415.169135 368.654375 
L 421.535269 368.654375 
L 421.535269 368.654375 
L 415.169135 368.654375 
z
" clip-path="url(#p7ed986a421)" style="fill: #dd8452; fill-opacity: 0.5"/>
   </g>
   <g id="patch_170">
    <path d="M 421.535269 368.654375 
L 427.901404 368.654375 
L 427.901404 367.304232 
L 421.535269 367.304232 
z
" clip-path="url(#p7ed986a421)" style="fill: #dd8452; fill-opacity: 0.5"/>
   </g>
   <g id="patch_171">
    <path d="M 427.901404 368.654375 
L 434.267538 368.654375 
L 434.267538 368.654375 
L 427.901404 368.654375 
z
" clip-path="url(#p7ed986a421)" style="fill: #dd8452; fill-opacity: 0.5"/>
   </g>
   <g id="patch_172">
    <path d="M 434.267538 368.654375 
L 440.633673 368.654375 
L 440.633673 368.654375 
L 434.267538 368.654375 
z
" clip-path="url(#p7ed986a421)" style="fill: #dd8452; fill-opacity: 0.5"/>
   </g>
   <g id="patch_173">
    <path d="M 440.633673 368.654375 
L 446.999807 368.654375 
L 446.999807 368.654375 
L 440.633673 368.654375 
z
" clip-path="url(#p7ed986a421)" style="fill: #dd8452; fill-opacity: 0.5"/>
   </g>
   <g id="patch_174">
    <path d="M 446.999807 368.654375 
L 453.365941 368.654375 
L 453.365941 368.204327 
L 446.999807 368.204327 
z
" clip-path="url(#p7ed986a421)" style="fill: #dd8452; fill-opacity: 0.5"/>
   </g>
   <g id="patch_175">
    <path d="M 453.365941 368.654375 
L 459.732076 368.654375 
L 459.732076 368.654375 
L 453.365941 368.654375 
z
" clip-path="url(#p7ed986a421)" style="fill: #dd8452; fill-opacity: 0.5"/>
   </g>
   <g id="patch_176">
    <path d="M 459.732076 368.654375 
L 466.09821 368.654375 
L 466.09821 368.204327 
L 459.732076 368.204327 
z
" clip-path="url(#p7ed986a421)" style="fill: #dd8452; fill-opacity: 0.5"/>
   </g>
   <g id="patch_177">
    <path d="M 96.862415 368.654375 
L 103.228549 368.654375 
L 103.228549 299.347057 
L 96.862415 299.347057 
z
" clip-path="url(#p7ed986a421)" style="fill: #4c72b0; fill-opacity: 0.5"/>
   </g>
   <g id="patch_178">
    <path d="M 103.228549 368.654375 
L 109.594684 368.654375 
L 109.594684 315.998815 
L 103.228549 315.998815 
z
" clip-path="url(#p7ed986a421)" style="fill: #4c72b0; fill-opacity: 0.5"/>
   </g>
   <g id="patch_179">
    <path d="M 109.594684 368.654375 
L 115.960818 368.654375 
L 115.960818 319.599195 
L 109.594684 319.599195 
z
" clip-path="url(#p7ed986a421)" style="fill: #4c72b0; fill-opacity: 0.5"/>
   </g>
   <g id="patch_180">
    <path d="M 115.960818 368.654375 
L 122.326952 368.654375 
L 122.326952 318.249052 
L 115.960818 318.249052 
z
" clip-path="url(#p7ed986a421)" style="fill: #4c72b0; fill-opacity: 0.5"/>
   </g>
   <g id="patch_181">
    <path d="M 122.326952 368.654375 
L 128.693087 368.654375 
L 128.693087 301.147247 
L 122.326952 301.147247 
z
" clip-path="url(#p7ed986a421)" style="fill: #4c72b0; fill-opacity: 0.5"/>
   </g>
   <g id="patch_182">
    <path d="M 128.693087 368.654375 
L 135.059221 368.654375 
L 135.059221 315.548767 
L 128.693087 315.548767 
z
" clip-path="url(#p7ed986a421)" style="fill: #4c72b0; fill-opacity: 0.5"/>
   </g>
   <g id="patch_183">
    <path d="M 135.059221 368.654375 
L 141.425356 368.654375 
L 141.425356 310.598245 
L 135.059221 310.598245 
z
" clip-path="url(#p7ed986a421)" style="fill: #4c72b0; fill-opacity: 0.5"/>
   </g>
   <g id="patch_184">
    <path d="M 141.425356 368.654375 
L 147.79149 368.654375 
L 147.79149 310.148197 
L 141.425356 310.148197 
z
" clip-path="url(#p7ed986a421)" style="fill: #4c72b0; fill-opacity: 0.5"/>
   </g>
   <g id="patch_185">
    <path d="M 147.79149 368.654375 
L 154.157624 368.654375 
L 154.157624 315.548767 
L 147.79149 315.548767 
z
" clip-path="url(#p7ed986a421)" style="fill: #4c72b0; fill-opacity: 0.5"/>
   </g>
   <g id="patch_186">
    <path d="M 154.157624 368.654375 
L 160.523759 368.654375 
L 160.523759 305.647722 
L 154.157624 305.647722 
z
" clip-path="url(#p7ed986a421)" style="fill: #4c72b0; fill-opacity: 0.5"/>
   </g>
   <g id="patch_187">
    <path d="M 160.523759 368.654375 
L 166.889893 368.654375 
L 166.889893 322.749528 
L 160.523759 322.749528 
z
" clip-path="url(#p7ed986a421)" style="fill: #4c72b0; fill-opacity: 0.5"/>
   </g>
   <g id="patch_188">
    <path d="M 166.889893 368.654375 
L 173.256028 368.654375 
L 173.256028 316.448862 
L 166.889893 316.448862 
z
" clip-path="url(#p7ed986a421)" style="fill: #4c72b0; fill-opacity: 0.5"/>
   </g>
   <g id="patch_189">
    <path d="M 173.256028 368.654375 
L 179.622162 368.654375 
L 179.622162 318.249052 
L 173.256028 318.249052 
z
" clip-path="url(#p7ed986a421)" style="fill: #4c72b0; fill-opacity: 0.5"/>
   </g>
   <g id="patch_190">
    <path d="M 179.622162 368.654375 
L 185.988296 368.654375 
L 185.988296 322.749528 
L 179.622162 322.749528 
z
" clip-path="url(#p7ed986a421)" style="fill: #4c72b0; fill-opacity: 0.5"/>
   </g>
   <g id="patch_191">
    <path d="M 185.988296 368.654375 
L 192.354431 368.654375 
L 192.354431 305.647722 
L 185.988296 305.647722 
z
" clip-path="url(#p7ed986a421)" style="fill: #4c72b0; fill-opacity: 0.5"/>
   </g>
   <g id="patch_192">
    <path d="M 192.354431 368.654375 
L 198.720565 368.654375 
L 198.720565 326.349908 
L 192.354431 326.349908 
z
" clip-path="url(#p7ed986a421)" style="fill: #4c72b0; fill-opacity: 0.5"/>
   </g>
   <g id="patch_193">
    <path d="M 198.720565 368.654375 
L 205.0867 368.654375 
L 205.0867 329.500241 
L 198.720565 329.500241 
z
" clip-path="url(#p7ed986a421)" style="fill: #4c72b0; fill-opacity: 0.5"/>
   </g>
   <g id="patch_194">
    <path d="M 205.0867 368.654375 
L 211.452834 368.654375 
L 211.452834 334.000716 
L 205.0867 334.000716 
z
" clip-path="url(#p7ed986a421)" style="fill: #4c72b0; fill-opacity: 0.5"/>
   </g>
   <g id="patch_195">
    <path d="M 211.452834 368.654375 
L 217.818968 368.654375 
L 217.818968 322.749528 
L 211.452834 322.749528 
z
" clip-path="url(#p7ed986a421)" style="fill: #4c72b0; fill-opacity: 0.5"/>
   </g>
   <g id="patch_196">
    <path d="M 217.818968 368.654375 
L 224.185103 368.654375 
L 224.185103 331.750478 
L 217.818968 331.750478 
z
" clip-path="url(#p7ed986a421)" style="fill: #4c72b0; fill-opacity: 0.5"/>
   </g>
   <g id="patch_197">
    <path d="M 224.185103 368.654375 
L 230.551237 368.654375 
L 230.551237 331.300431 
L 224.185103 331.300431 
z
" clip-path="url(#p7ed986a421)" style="fill: #4c72b0; fill-opacity: 0.5"/>
   </g>
   <g id="patch_198">
    <path d="M 230.551237 368.654375 
L 236.917372 368.654375 
L 236.917372 330.850383 
L 230.551237 330.850383 
z
" clip-path="url(#p7ed986a421)" style="fill: #4c72b0; fill-opacity: 0.5"/>
   </g>
   <g id="patch_199">
    <path d="M 236.917372 368.654375 
L 243.283506 368.654375 
L 243.283506 334.900811 
L 236.917372 334.900811 
z
" clip-path="url(#p7ed986a421)" style="fill: #4c72b0; fill-opacity: 0.5"/>
   </g>
   <g id="patch_200">
    <path d="M 243.283506 368.654375 
L 249.64964 368.654375 
L 249.64964 334.000716 
L 243.283506 334.000716 
z
" clip-path="url(#p7ed986a421)" style="fill: #4c72b0; fill-opacity: 0.5"/>
   </g>
   <g id="patch_201">
    <path d="M 249.64964 368.654375 
L 256.015775 368.654375 
L 256.015775 337.601096 
L 249.64964 337.601096 
z
" clip-path="url(#p7ed986a421)" style="fill: #4c72b0; fill-opacity: 0.5"/>
   </g>
   <g id="patch_202">
    <path d="M 256.015775 368.654375 
L 262.381909 368.654375 
L 262.381909 342.101571 
L 256.015775 342.101571 
z
" clip-path="url(#p7ed986a421)" style="fill: #4c72b0; fill-opacity: 0.5"/>
   </g>
   <g id="patch_203">
    <path d="M 262.381909 368.654375 
L 268.748044 368.654375 
L 268.748044 340.751429 
L 262.381909 340.751429 
z
" clip-path="url(#p7ed986a421)" style="fill: #4c72b0; fill-opacity: 0.5"/>
   </g>
   <g id="patch_204">
    <path d="M 268.748044 368.654375 
L 275.114178 368.654375 
L 275.114178 343.451714 
L 268.748044 343.451714 
z
" clip-path="url(#p7ed986a421)" style="fill: #4c72b0; fill-opacity: 0.5"/>
   </g>
   <g id="patch_205">
    <path d="M 275.114178 368.654375 
L 281.480312 368.654375 
L 281.480312 349.302332 
L 275.114178 349.302332 
z
" clip-path="url(#p7ed986a421)" style="fill: #4c72b0; fill-opacity: 0.5"/>
   </g>
   <g id="patch_206">
    <path d="M 281.480312 368.654375 
L 287.846447 368.654375 
L 287.846447 339.851334 
L 281.480312 339.851334 
z
" clip-path="url(#p7ed986a421)" style="fill: #4c72b0; fill-opacity: 0.5"/>
   </g>
   <g id="patch_207">
    <path d="M 287.846447 368.654375 
L 294.212581 368.654375 
L 294.212581 347.052094 
L 287.846447 347.052094 
z
" clip-path="url(#p7ed986a421)" style="fill: #4c72b0; fill-opacity: 0.5"/>
   </g>
   <g id="patch_208">
    <path d="M 294.212581 368.654375 
L 300.578716 368.654375 
L 300.578716 350.652474 
L 294.212581 350.652474 
z
" clip-path="url(#p7ed986a421)" style="fill: #4c72b0; fill-opacity: 0.5"/>
   </g>
   <g id="patch_209">
    <path d="M 300.578716 368.654375 
L 306.94485 368.654375 
L 306.94485 351.552569 
L 300.578716 351.552569 
z
" clip-path="url(#p7ed986a421)" style="fill: #4c72b0; fill-opacity: 0.5"/>
   </g>
   <g id="patch_210">
    <path d="M 306.94485 368.654375 
L 313.310985 368.654375 
L 313.310985 347.052094 
L 306.94485 347.052094 
z
" clip-path="url(#p7ed986a421)" style="fill: #4c72b0; fill-opacity: 0.5"/>
   </g>
   <g id="patch_211">
    <path d="M 313.310985 368.654375 
L 319.677119 368.654375 
L 319.677119 346.602046 
L 313.310985 346.602046 
z
" clip-path="url(#p7ed986a421)" style="fill: #4c72b0; fill-opacity: 0.5"/>
   </g>
   <g id="patch_212">
    <path d="M 319.677119 368.654375 
L 326.043253 368.654375 
L 326.043253 349.302332 
L 319.677119 349.302332 
z
" clip-path="url(#p7ed986a421)" style="fill: #4c72b0; fill-opacity: 0.5"/>
   </g>
   <g id="patch_213">
    <path d="M 326.043253 368.654375 
L 332.409388 368.654375 
L 332.409388 350.202427 
L 326.043253 350.202427 
z
" clip-path="url(#p7ed986a421)" style="fill: #4c72b0; fill-opacity: 0.5"/>
   </g>
   <g id="patch_214">
    <path d="M 332.409388 368.654375 
L 338.775522 368.654375 
L 338.775522 348.402236 
L 332.409388 348.402236 
z
" clip-path="url(#p7ed986a421)" style="fill: #4c72b0; fill-opacity: 0.5"/>
   </g>
   <g id="patch_215">
    <path d="M 338.775522 368.654375 
L 345.141657 368.654375 
L 345.141657 347.952189 
L 338.775522 347.952189 
z
" clip-path="url(#p7ed986a421)" style="fill: #4c72b0; fill-opacity: 0.5"/>
   </g>
   <g id="patch_216">
    <path d="M 345.141657 368.654375 
L 351.507791 368.654375 
L 351.507791 352.452664 
L 345.141657 352.452664 
z
" clip-path="url(#p7ed986a421)" style="fill: #4c72b0; fill-opacity: 0.5"/>
   </g>
   <g id="patch_217">
    <path d="M 351.507791 368.654375 
L 357.873925 368.654375 
L 357.873925 347.952189 
L 351.507791 347.952189 
z
" clip-path="url(#p7ed986a421)" style="fill: #4c72b0; fill-opacity: 0.5"/>
   </g>
   <g id="patch_218">
    <path d="M 357.873925 368.654375 
L 364.24006 368.654375 
L 364.24006 348.852284 
L 357.873925 348.852284 
z
" clip-path="url(#p7ed986a421)" style="fill: #4c72b0; fill-opacity: 0.5"/>
   </g>
   <g id="patch_219">
    <path d="M 364.24006 368.654375 
L 370.606194 368.654375 
L 370.606194 340.751429 
L 364.24006 340.751429 
z
" clip-path="url(#p7ed986a421)" style="fill: #4c72b0; fill-opacity: 0.5"/>
   </g>
   <g id="patch_220">
    <path d="M 370.606194 368.654375 
L 376.972329 368.654375 
L 376.972329 347.952189 
L 370.606194 347.952189 
z
" clip-path="url(#p7ed986a421)" style="fill: #4c72b0; fill-opacity: 0.5"/>
   </g>
   <g id="patch_221">
    <path d="M 376.972329 368.654375 
L 383.338463 368.654375 
L 383.338463 338.051143 
L 376.972329 338.051143 
z
" clip-path="url(#p7ed986a421)" style="fill: #4c72b0; fill-opacity: 0.5"/>
   </g>
   <g id="patch_222">
    <path d="M 383.338463 368.654375 
L 389.704597 368.654375 
L 389.704597 346.602046 
L 383.338463 346.602046 
z
" clip-path="url(#p7ed986a421)" style="fill: #4c72b0; fill-opacity: 0.5"/>
   </g>
   <g id="patch_223">
    <path d="M 389.704597 368.654375 
L 396.070732 368.654375 
L 396.070732 340.751429 
L 389.704597 340.751429 
z
" clip-path="url(#p7ed986a421)" style="fill: #4c72b0; fill-opacity: 0.5"/>
   </g>
   <g id="patch_224">
    <path d="M 396.070732 368.654375 
L 402.436866 368.654375 
L 402.436866 338.051143 
L 396.070732 338.051143 
z
" clip-path="url(#p7ed986a421)" style="fill: #4c72b0; fill-opacity: 0.5"/>
   </g>
   <g id="patch_225">
    <path d="M 402.436866 368.654375 
L 408.803001 368.654375 
L 408.803001 334.900811 
L 402.436866 334.900811 
z
" clip-path="url(#p7ed986a421)" style="fill: #4c72b0; fill-opacity: 0.5"/>
   </g>
   <g id="patch_226">
    <path d="M 408.803001 368.654375 
L 415.169135 368.654375 
L 415.169135 339.401286 
L 408.803001 339.401286 
z
" clip-path="url(#p7ed986a421)" style="fill: #4c72b0; fill-opacity: 0.5"/>
   </g>
   <g id="patch_227">
    <path d="M 415.169135 368.654375 
L 421.535269 368.654375 
L 421.535269 327.250003 
L 415.169135 327.250003 
z
" clip-path="url(#p7ed986a421)" style="fill: #4c72b0; fill-opacity: 0.5"/>
   </g>
   <g id="patch_228">
    <path d="M 421.535269 368.654375 
L 427.901404 368.654375 
L 427.901404 344.351809 
L 421.535269 344.351809 
z
" clip-path="url(#p7ed986a421)" style="fill: #4c72b0; fill-opacity: 0.5"/>
   </g>
   <g id="patch_229">
    <path d="M 427.901404 368.654375 
L 434.267538 368.654375 
L 434.267538 335.350858 
L 427.901404 335.350858 
z
" clip-path="url(#p7ed986a421)" style="fill: #4c72b0; fill-opacity: 0.5"/>
   </g>
   <g id="patch_230">
    <path d="M 434.267538 368.654375 
L 440.633673 368.654375 
L 440.633673 324.549718 
L 434.267538 324.549718 
z
" clip-path="url(#p7ed986a421)" style="fill: #4c72b0; fill-opacity: 0.5"/>
   </g>
   <g id="patch_231">
    <path d="M 440.633673 368.654375 
L 446.999807 368.654375 
L 446.999807 325.89986 
L 440.633673 325.89986 
z
" clip-path="url(#p7ed986a421)" style="fill: #4c72b0; fill-opacity: 0.5"/>
   </g>
   <g id="patch_232">
    <path d="M 446.999807 368.654375 
L 453.365941 368.654375 
L 453.365941 326.799955 
L 446.999807 326.799955 
z
" clip-path="url(#p7ed986a421)" style="fill: #4c72b0; fill-opacity: 0.5"/>
   </g>
   <g id="patch_233">
    <path d="M 453.365941 368.654375 
L 459.732076 368.654375 
L 459.732076 328.600146 
L 453.365941 328.600146 
z
" clip-path="url(#p7ed986a421)" style="fill: #4c72b0; fill-opacity: 0.5"/>
   </g>
   <g id="patch_234">
    <path d="M 459.732076 368.654375 
L 466.09821 368.654375 
L 466.09821 336.701001 
L 459.732076 336.701001 
z
" clip-path="url(#p7ed986a421)" style="fill: #4c72b0; fill-opacity: 0.5"/>
   </g>
   <g id="matplotlib.axis_1">
    <g id="xtick_1">
     <g id="line2d_1">
      <path d="M 96.862415 368.654375 
L 96.862415 19.44 
" clip-path="url(#p7ed986a421)" style="fill: none; stroke: #b0b0b0; stroke-width: 0.8; stroke-linecap: square"/>
     </g>
     <g id="line2d_2">
      <defs>
       <path id="m8133283911" d="M 0 0 
L 0 3.5 
" style="stroke: #000000; stroke-width: 0.8"/>
      </defs>
      <g>
       <use xlink:href="#m8133283911" x="96.862415" y="368.654375" style="stroke: #000000; stroke-width: 0.8"/>
      </g>
     </g>
     <g id="text_1">
      <!-- 0.0 -->
      <g transform="translate(84.139915 387.811875) scale(0.16 -0.16)">
       <defs>
        <path id="DejaVuSans-30" d="M 2034 4250 
Q 1547 4250 1301 3770 
Q 1056 3291 1056 2328 
Q 1056 1369 1301 889 
Q 1547 409 2034 409 
Q 2525 409 2770 889 
Q 3016 1369 3016 2328 
Q 3016 3291 2770 3770 
Q 2525 4250 2034 4250 
z
M 2034 4750 
Q 2819 4750 3233 4129 
Q 3647 3509 3647 2328 
Q 3647 1150 3233 529 
Q 2819 -91 2034 -91 
Q 1250 -91 836 529 
Q 422 1150 422 2328 
Q 422 3509 836 4129 
Q 1250 4750 2034 4750 
z
" transform="scale(0.015625)"/>
        <path id="DejaVuSans-2e" d="M 684 794 
L 1344 794 
L 1344 0 
L 684 0 
L 684 794 
z
" transform="scale(0.015625)"/>
       </defs>
       <use xlink:href="#DejaVuSans-30"/>
       <use xlink:href="#DejaVuSans-2e" x="63.623047"/>
       <use xlink:href="#DejaVuSans-30" x="95.410156"/>
      </g>
     </g>
    </g>
    <g id="xtick_2">
     <g id="line2d_3">
      <path d="M 170.709574 368.654375 
L 170.709574 19.44 
" clip-path="url(#p7ed986a421)" style="fill: none; stroke: #b0b0b0; stroke-width: 0.8; stroke-linecap: square"/>
     </g>
     <g id="line2d_4">
      <g>
       <use xlink:href="#m8133283911" x="170.709574" y="368.654375" style="stroke: #000000; stroke-width: 0.8"/>
      </g>
     </g>
     <g id="text_2">
      <!-- 0.2 -->
      <g transform="translate(157.987074 387.811875) scale(0.16 -0.16)">
       <defs>
        <path id="DejaVuSans-32" d="M 1228 531 
L 3431 531 
L 3431 0 
L 469 0 
L 469 531 
Q 828 903 1448 1529 
Q 2069 2156 2228 2338 
Q 2531 2678 2651 2914 
Q 2772 3150 2772 3378 
Q 2772 3750 2511 3984 
Q 2250 4219 1831 4219 
Q 1534 4219 1204 4116 
Q 875 4013 500 3803 
L 500 4441 
Q 881 4594 1212 4672 
Q 1544 4750 1819 4750 
Q 2544 4750 2975 4387 
Q 3406 4025 3406 3419 
Q 3406 3131 3298 2873 
Q 3191 2616 2906 2266 
Q 2828 2175 2409 1742 
Q 1991 1309 1228 531 
z
" transform="scale(0.015625)"/>
       </defs>
       <use xlink:href="#DejaVuSans-30"/>
       <use xlink:href="#DejaVuSans-2e" x="63.623047"/>
       <use xlink:href="#DejaVuSans-32" x="95.410156"/>
      </g>
     </g>
    </g>
    <g id="xtick_3">
     <g id="line2d_5">
      <path d="M 244.556733 368.654375 
L 244.556733 19.44 
" clip-path="url(#p7ed986a421)" style="fill: none; stroke: #b0b0b0; stroke-width: 0.8; stroke-linecap: square"/>
     </g>
     <g id="line2d_6">
      <g>
       <use xlink:href="#m8133283911" x="244.556733" y="368.654375" style="stroke: #000000; stroke-width: 0.8"/>
      </g>
     </g>
     <g id="text_3">
      <!-- 0.4 -->
      <g transform="translate(231.834233 387.811875) scale(0.16 -0.16)">
       <defs>
        <path id="DejaVuSans-34" d="M 2419 4116 
L 825 1625 
L 2419 1625 
L 2419 4116 
z
M 2253 4666 
L 3047 4666 
L 3047 1625 
L 3713 1625 
L 3713 1100 
L 3047 1100 
L 3047 0 
L 2419 0 
L 2419 1100 
L 313 1100 
L 313 1709 
L 2253 4666 
z
" transform="scale(0.015625)"/>
       </defs>
       <use xlink:href="#DejaVuSans-30"/>
       <use xlink:href="#DejaVuSans-2e" x="63.623047"/>
       <use xlink:href="#DejaVuSans-34" x="95.410156"/>
      </g>
     </g>
    </g>
    <g id="xtick_4">
     <g id="line2d_7">
      <path d="M 318.403892 368.654375 
L 318.403892 19.44 
" clip-path="url(#p7ed986a421)" style="fill: none; stroke: #b0b0b0; stroke-width: 0.8; stroke-linecap: square"/>
     </g>
     <g id="line2d_8">
      <g>
       <use xlink:href="#m8133283911" x="318.403892" y="368.654375" style="stroke: #000000; stroke-width: 0.8"/>
      </g>
     </g>
     <g id="text_4">
      <!-- 0.6 -->
      <g transform="translate(305.681392 387.811875) scale(0.16 -0.16)">
       <defs>
        <path id="DejaVuSans-36" d="M 2113 2584 
Q 1688 2584 1439 2293 
Q 1191 2003 1191 1497 
Q 1191 994 1439 701 
Q 1688 409 2113 409 
Q 2538 409 2786 701 
Q 3034 994 3034 1497 
Q 3034 2003 2786 2293 
Q 2538 2584 2113 2584 
z
M 3366 4563 
L 3366 3988 
Q 3128 4100 2886 4159 
Q 2644 4219 2406 4219 
Q 1781 4219 1451 3797 
Q 1122 3375 1075 2522 
Q 1259 2794 1537 2939 
Q 1816 3084 2150 3084 
Q 2853 3084 3261 2657 
Q 3669 2231 3669 1497 
Q 3669 778 3244 343 
Q 2819 -91 2113 -91 
Q 1303 -91 875 529 
Q 447 1150 447 2328 
Q 447 3434 972 4092 
Q 1497 4750 2381 4750 
Q 2619 4750 2861 4703 
Q 3103 4656 3366 4563 
z
" transform="scale(0.015625)"/>
       </defs>
       <use xlink:href="#DejaVuSans-30"/>
       <use xlink:href="#DejaVuSans-2e" x="63.623047"/>
       <use xlink:href="#DejaVuSans-36" x="95.410156"/>
      </g>
     </g>
    </g>
    <g id="xtick_5">
     <g id="line2d_9">
      <path d="M 392.251051 368.654375 
L 392.251051 19.44 
" clip-path="url(#p7ed986a421)" style="fill: none; stroke: #b0b0b0; stroke-width: 0.8; stroke-linecap: square"/>
     </g>
     <g id="line2d_10">
      <g>
       <use xlink:href="#m8133283911" x="392.251051" y="368.654375" style="stroke: #000000; stroke-width: 0.8"/>
      </g>
     </g>
     <g id="text_5">
      <!-- 0.8 -->
      <g transform="translate(379.528551 387.811875) scale(0.16 -0.16)">
       <defs>
        <path id="DejaVuSans-38" d="M 2034 2216 
Q 1584 2216 1326 1975 
Q 1069 1734 1069 1313 
Q 1069 891 1326 650 
Q 1584 409 2034 409 
Q 2484 409 2743 651 
Q 3003 894 3003 1313 
Q 3003 1734 2745 1975 
Q 2488 2216 2034 2216 
z
M 1403 2484 
Q 997 2584 770 2862 
Q 544 3141 544 3541 
Q 544 4100 942 4425 
Q 1341 4750 2034 4750 
Q 2731 4750 3128 4425 
Q 3525 4100 3525 3541 
Q 3525 3141 3298 2862 
Q 3072 2584 2669 2484 
Q 3125 2378 3379 2068 
Q 3634 1759 3634 1313 
Q 3634 634 3220 271 
Q 2806 -91 2034 -91 
Q 1263 -91 848 271 
Q 434 634 434 1313 
Q 434 1759 690 2068 
Q 947 2378 1403 2484 
z
M 1172 3481 
Q 1172 3119 1398 2916 
Q 1625 2713 2034 2713 
Q 2441 2713 2670 2916 
Q 2900 3119 2900 3481 
Q 2900 3844 2670 4047 
Q 2441 4250 2034 4250 
Q 1625 4250 1398 4047 
Q 1172 3844 1172 3481 
z
" transform="scale(0.015625)"/>
       </defs>
       <use xlink:href="#DejaVuSans-30"/>
       <use xlink:href="#DejaVuSans-2e" x="63.623047"/>
       <use xlink:href="#DejaVuSans-38" x="95.410156"/>
      </g>
     </g>
    </g>
    <g id="xtick_6">
     <g id="line2d_11">
      <path d="M 466.09821 368.654375 
L 466.09821 19.44 
" clip-path="url(#p7ed986a421)" style="fill: none; stroke: #b0b0b0; stroke-width: 0.8; stroke-linecap: square"/>
     </g>
     <g id="line2d_12">
      <g>
       <use xlink:href="#m8133283911" x="466.09821" y="368.654375" style="stroke: #000000; stroke-width: 0.8"/>
      </g>
     </g>
     <g id="text_6">
      <!-- 1.0 -->
      <g transform="translate(453.37571 387.811875) scale(0.16 -0.16)">
       <defs>
        <path id="DejaVuSans-31" d="M 794 531 
L 1825 531 
L 1825 4091 
L 703 3866 
L 703 4441 
L 1819 4666 
L 2450 4666 
L 2450 531 
L 3481 531 
L 3481 0 
L 794 0 
L 794 531 
z
" transform="scale(0.015625)"/>
       </defs>
       <use xlink:href="#DejaVuSans-31"/>
       <use xlink:href="#DejaVuSans-2e" x="63.623047"/>
       <use xlink:href="#DejaVuSans-30" x="95.410156"/>
      </g>
     </g>
    </g>
    <g id="text_7">
     <!-- Feature Values -->
     <g transform="translate(215.213594 408.816563) scale(0.18 -0.18)">
      <defs>
       <path id="DejaVuSans-46" d="M 628 4666 
L 3309 4666 
L 3309 4134 
L 1259 4134 
L 1259 2759 
L 3109 2759 
L 3109 2228 
L 1259 2228 
L 1259 0 
L 628 0 
L 628 4666 
z
" transform="scale(0.015625)"/>
       <path id="DejaVuSans-65" d="M 3597 1894 
L 3597 1613 
L 953 1613 
Q 991 1019 1311 708 
Q 1631 397 2203 397 
Q 2534 397 2845 478 
Q 3156 559 3463 722 
L 3463 178 
Q 3153 47 2828 -22 
Q 2503 -91 2169 -91 
Q 1331 -91 842 396 
Q 353 884 353 1716 
Q 353 2575 817 3079 
Q 1281 3584 2069 3584 
Q 2775 3584 3186 3129 
Q 3597 2675 3597 1894 
z
M 3022 2063 
Q 3016 2534 2758 2815 
Q 2500 3097 2075 3097 
Q 1594 3097 1305 2825 
Q 1016 2553 972 2059 
L 3022 2063 
z
" transform="scale(0.015625)"/>
       <path id="DejaVuSans-61" d="M 2194 1759 
Q 1497 1759 1228 1600 
Q 959 1441 959 1056 
Q 959 750 1161 570 
Q 1363 391 1709 391 
Q 2188 391 2477 730 
Q 2766 1069 2766 1631 
L 2766 1759 
L 2194 1759 
z
M 3341 1997 
L 3341 0 
L 2766 0 
L 2766 531 
Q 2569 213 2275 61 
Q 1981 -91 1556 -91 
Q 1019 -91 701 211 
Q 384 513 384 1019 
Q 384 1609 779 1909 
Q 1175 2209 1959 2209 
L 2766 2209 
L 2766 2266 
Q 2766 2663 2505 2880 
Q 2244 3097 1772 3097 
Q 1472 3097 1187 3025 
Q 903 2953 641 2809 
L 641 3341 
Q 956 3463 1253 3523 
Q 1550 3584 1831 3584 
Q 2591 3584 2966 3190 
Q 3341 2797 3341 1997 
z
" transform="scale(0.015625)"/>
       <path id="DejaVuSans-74" d="M 1172 4494 
L 1172 3500 
L 2356 3500 
L 2356 3053 
L 1172 3053 
L 1172 1153 
Q 1172 725 1289 603 
Q 1406 481 1766 481 
L 2356 481 
L 2356 0 
L 1766 0 
Q 1100 0 847 248 
Q 594 497 594 1153 
L 594 3053 
L 172 3053 
L 172 3500 
L 594 3500 
L 594 4494 
L 1172 4494 
z
" transform="scale(0.015625)"/>
       <path id="DejaVuSans-75" d="M 544 1381 
L 544 3500 
L 1119 3500 
L 1119 1403 
Q 1119 906 1312 657 
Q 1506 409 1894 409 
Q 2359 409 2629 706 
Q 2900 1003 2900 1516 
L 2900 3500 
L 3475 3500 
L 3475 0 
L 2900 0 
L 2900 538 
Q 2691 219 2414 64 
Q 2138 -91 1772 -91 
Q 1169 -91 856 284 
Q 544 659 544 1381 
z
M 1991 3584 
L 1991 3584 
z
" transform="scale(0.015625)"/>
       <path id="DejaVuSans-72" d="M 2631 2963 
Q 2534 3019 2420 3045 
Q 2306 3072 2169 3072 
Q 1681 3072 1420 2755 
Q 1159 2438 1159 1844 
L 1159 0 
L 581 0 
L 581 3500 
L 1159 3500 
L 1159 2956 
Q 1341 3275 1631 3429 
Q 1922 3584 2338 3584 
Q 2397 3584 2469 3576 
Q 2541 3569 2628 3553 
L 2631 2963 
z
" transform="scale(0.015625)"/>
       <path id="DejaVuSans-20" transform="scale(0.015625)"/>
       <path id="DejaVuSans-56" d="M 1831 0 
L 50 4666 
L 709 4666 
L 2188 738 
L 3669 4666 
L 4325 4666 
L 2547 0 
L 1831 0 
z
" transform="scale(0.015625)"/>
       <path id="DejaVuSans-6c" d="M 603 4863 
L 1178 4863 
L 1178 0 
L 603 0 
L 603 4863 
z
" transform="scale(0.015625)"/>
       <path id="DejaVuSans-73" d="M 2834 3397 
L 2834 2853 
Q 2591 2978 2328 3040 
Q 2066 3103 1784 3103 
Q 1356 3103 1142 2972 
Q 928 2841 928 2578 
Q 928 2378 1081 2264 
Q 1234 2150 1697 2047 
L 1894 2003 
Q 2506 1872 2764 1633 
Q 3022 1394 3022 966 
Q 3022 478 2636 193 
Q 2250 -91 1575 -91 
Q 1294 -91 989 -36 
Q 684 19 347 128 
L 347 722 
Q 666 556 975 473 
Q 1284 391 1588 391 
Q 1994 391 2212 530 
Q 2431 669 2431 922 
Q 2431 1156 2273 1281 
Q 2116 1406 1581 1522 
L 1381 1569 
Q 847 1681 609 1914 
Q 372 2147 372 2553 
Q 372 3047 722 3315 
Q 1072 3584 1716 3584 
Q 2034 3584 2315 3537 
Q 2597 3491 2834 3397 
z
" transform="scale(0.015625)"/>
      </defs>
      <use xlink:href="#DejaVuSans-46"/>
      <use xlink:href="#DejaVuSans-65" x="52.019531"/>
      <use xlink:href="#DejaVuSans-61" x="113.542969"/>
      <use xlink:href="#DejaVuSans-74" x="174.822266"/>
      <use xlink:href="#DejaVuSans-75" x="214.03125"/>
      <use xlink:href="#DejaVuSans-72" x="277.410156"/>
      <use xlink:href="#DejaVuSans-65" x="316.273438"/>
      <use xlink:href="#DejaVuSans-20" x="377.796875"/>
      <use xlink:href="#DejaVuSans-56" x="409.583984"/>
      <use xlink:href="#DejaVuSans-61" x="470.242188"/>
      <use xlink:href="#DejaVuSans-6c" x="531.521484"/>
      <use xlink:href="#DejaVuSans-75" x="559.304688"/>
      <use xlink:href="#DejaVuSans-65" x="622.683594"/>
      <use xlink:href="#DejaVuSans-73" x="684.207031"/>
     </g>
    </g>
   </g>
   <g id="matplotlib.axis_2">
    <g id="ytick_1">
     <g id="line2d_13">
      <path d="M 78.400625 368.654375 
L 484.56 368.654375 
" clip-path="url(#p7ed986a421)" style="fill: none; stroke: #b0b0b0; stroke-width: 0.8; stroke-linecap: square"/>
     </g>
     <g id="line2d_14">
      <defs>
       <path id="md222e42df2" d="M 0 0 
L -3.5 0 
" style="stroke: #000000; stroke-width: 0.8"/>
      </defs>
      <g>
       <use xlink:href="#md222e42df2" x="78.400625" y="368.654375" style="stroke: #000000; stroke-width: 0.8"/>
      </g>
     </g>
     <g id="text_8">
      <!-- 0 -->
      <g transform="translate(61.220625 374.733125) scale(0.16 -0.16)">
       <use xlink:href="#DejaVuSans-30"/>
      </g>
     </g>
    </g>
    <g id="ytick_2">
     <g id="line2d_15">
      <path d="M 78.400625 323.649623 
L 484.56 323.649623 
" clip-path="url(#p7ed986a421)" style="fill: none; stroke: #b0b0b0; stroke-width: 0.8; stroke-linecap: square"/>
     </g>
     <g id="line2d_16">
      <g>
       <use xlink:href="#md222e42df2" x="78.400625" y="323.649623" style="stroke: #000000; stroke-width: 0.8"/>
      </g>
     </g>
     <g id="text_9">
      <!-- 100 -->
      <g transform="translate(40.860625 329.728373) scale(0.16 -0.16)">
       <use xlink:href="#DejaVuSans-31"/>
       <use xlink:href="#DejaVuSans-30" x="63.623047"/>
       <use xlink:href="#DejaVuSans-30" x="127.246094"/>
      </g>
     </g>
    </g>
    <g id="ytick_3">
     <g id="line2d_17">
      <path d="M 78.400625 278.644871 
L 484.56 278.644871 
" clip-path="url(#p7ed986a421)" style="fill: none; stroke: #b0b0b0; stroke-width: 0.8; stroke-linecap: square"/>
     </g>
     <g id="line2d_18">
      <g>
       <use xlink:href="#md222e42df2" x="78.400625" y="278.644871" style="stroke: #000000; stroke-width: 0.8"/>
      </g>
     </g>
     <g id="text_10">
      <!-- 200 -->
      <g transform="translate(40.860625 284.723621) scale(0.16 -0.16)">
       <use xlink:href="#DejaVuSans-32"/>
       <use xlink:href="#DejaVuSans-30" x="63.623047"/>
       <use xlink:href="#DejaVuSans-30" x="127.246094"/>
      </g>
     </g>
    </g>
    <g id="ytick_4">
     <g id="line2d_19">
      <path d="M 78.400625 233.640118 
L 484.56 233.640118 
" clip-path="url(#p7ed986a421)" style="fill: none; stroke: #b0b0b0; stroke-width: 0.8; stroke-linecap: square"/>
     </g>
     <g id="line2d_20">
      <g>
       <use xlink:href="#md222e42df2" x="78.400625" y="233.640118" style="stroke: #000000; stroke-width: 0.8"/>
      </g>
     </g>
     <g id="text_11">
      <!-- 300 -->
      <g transform="translate(40.860625 239.718868) scale(0.16 -0.16)">
       <defs>
        <path id="DejaVuSans-33" d="M 2597 2516 
Q 3050 2419 3304 2112 
Q 3559 1806 3559 1356 
Q 3559 666 3084 287 
Q 2609 -91 1734 -91 
Q 1441 -91 1130 -33 
Q 819 25 488 141 
L 488 750 
Q 750 597 1062 519 
Q 1375 441 1716 441 
Q 2309 441 2620 675 
Q 2931 909 2931 1356 
Q 2931 1769 2642 2001 
Q 2353 2234 1838 2234 
L 1294 2234 
L 1294 2753 
L 1863 2753 
Q 2328 2753 2575 2939 
Q 2822 3125 2822 3475 
Q 2822 3834 2567 4026 
Q 2313 4219 1838 4219 
Q 1578 4219 1281 4162 
Q 984 4106 628 3988 
L 628 4550 
Q 988 4650 1302 4700 
Q 1616 4750 1894 4750 
Q 2613 4750 3031 4423 
Q 3450 4097 3450 3541 
Q 3450 3153 3228 2886 
Q 3006 2619 2597 2516 
z
" transform="scale(0.015625)"/>
       </defs>
       <use xlink:href="#DejaVuSans-33"/>
       <use xlink:href="#DejaVuSans-30" x="63.623047"/>
       <use xlink:href="#DejaVuSans-30" x="127.246094"/>
      </g>
     </g>
    </g>
    <g id="ytick_5">
     <g id="line2d_21">
      <path d="M 78.400625 188.635366 
L 484.56 188.635366 
" clip-path="url(#p7ed986a421)" style="fill: none; stroke: #b0b0b0; stroke-width: 0.8; stroke-linecap: square"/>
     </g>
     <g id="line2d_22">
      <g>
       <use xlink:href="#md222e42df2" x="78.400625" y="188.635366" style="stroke: #000000; stroke-width: 0.8"/>
      </g>
     </g>
     <g id="text_12">
      <!-- 400 -->
      <g transform="translate(40.860625 194.714116) scale(0.16 -0.16)">
       <use xlink:href="#DejaVuSans-34"/>
       <use xlink:href="#DejaVuSans-30" x="63.623047"/>
       <use xlink:href="#DejaVuSans-30" x="127.246094"/>
      </g>
     </g>
    </g>
    <g id="ytick_6">
     <g id="line2d_23">
      <path d="M 78.400625 143.630614 
L 484.56 143.630614 
" clip-path="url(#p7ed986a421)" style="fill: none; stroke: #b0b0b0; stroke-width: 0.8; stroke-linecap: square"/>
     </g>
     <g id="line2d_24">
      <g>
       <use xlink:href="#md222e42df2" x="78.400625" y="143.630614" style="stroke: #000000; stroke-width: 0.8"/>
      </g>
     </g>
     <g id="text_13">
      <!-- 500 -->
      <g transform="translate(40.860625 149.709364) scale(0.16 -0.16)">
       <defs>
        <path id="DejaVuSans-35" d="M 691 4666 
L 3169 4666 
L 3169 4134 
L 1269 4134 
L 1269 2991 
Q 1406 3038 1543 3061 
Q 1681 3084 1819 3084 
Q 2600 3084 3056 2656 
Q 3513 2228 3513 1497 
Q 3513 744 3044 326 
Q 2575 -91 1722 -91 
Q 1428 -91 1123 -41 
Q 819 9 494 109 
L 494 744 
Q 775 591 1075 516 
Q 1375 441 1709 441 
Q 2250 441 2565 725 
Q 2881 1009 2881 1497 
Q 2881 1984 2565 2268 
Q 2250 2553 1709 2553 
Q 1456 2553 1204 2497 
Q 953 2441 691 2322 
L 691 4666 
z
" transform="scale(0.015625)"/>
       </defs>
       <use xlink:href="#DejaVuSans-35"/>
       <use xlink:href="#DejaVuSans-30" x="63.623047"/>
       <use xlink:href="#DejaVuSans-30" x="127.246094"/>
      </g>
     </g>
    </g>
    <g id="ytick_7">
     <g id="line2d_25">
      <path d="M 78.400625 98.625862 
L 484.56 98.625862 
" clip-path="url(#p7ed986a421)" style="fill: none; stroke: #b0b0b0; stroke-width: 0.8; stroke-linecap: square"/>
     </g>
     <g id="line2d_26">
      <g>
       <use xlink:href="#md222e42df2" x="78.400625" y="98.625862" style="stroke: #000000; stroke-width: 0.8"/>
      </g>
     </g>
     <g id="text_14">
      <!-- 600 -->
      <g transform="translate(40.860625 104.704612) scale(0.16 -0.16)">
       <use xlink:href="#DejaVuSans-36"/>
       <use xlink:href="#DejaVuSans-30" x="63.623047"/>
       <use xlink:href="#DejaVuSans-30" x="127.246094"/>
      </g>
     </g>
    </g>
    <g id="ytick_8">
     <g id="line2d_27">
      <path d="M 78.400625 53.621109 
L 484.56 53.621109 
" clip-path="url(#p7ed986a421)" style="fill: none; stroke: #b0b0b0; stroke-width: 0.8; stroke-linecap: square"/>
     </g>
     <g id="line2d_28">
      <g>
       <use xlink:href="#md222e42df2" x="78.400625" y="53.621109" style="stroke: #000000; stroke-width: 0.8"/>
      </g>
     </g>
     <g id="text_15">
      <!-- 700 -->
      <g transform="translate(40.860625 59.699859) scale(0.16 -0.16)">
       <defs>
        <path id="DejaVuSans-37" d="M 525 4666 
L 3525 4666 
L 3525 4397 
L 1831 0 
L 1172 0 
L 2766 4134 
L 525 4134 
L 525 4666 
z
" transform="scale(0.015625)"/>
       </defs>
       <use xlink:href="#DejaVuSans-37"/>
       <use xlink:href="#DejaVuSans-30" x="63.623047"/>
       <use xlink:href="#DejaVuSans-30" x="127.246094"/>
      </g>
     </g>
    </g>
    <g id="text_16">
     <!-- Frequency -->
     <g transform="translate(33.117188 240.540625) rotate(-90) scale(0.18 -0.18)">
      <defs>
       <path id="DejaVuSans-71" d="M 947 1747 
Q 947 1113 1208 752 
Q 1469 391 1925 391 
Q 2381 391 2643 752 
Q 2906 1113 2906 1747 
Q 2906 2381 2643 2742 
Q 2381 3103 1925 3103 
Q 1469 3103 1208 2742 
Q 947 2381 947 1747 
z
M 2906 525 
Q 2725 213 2448 61 
Q 2172 -91 1784 -91 
Q 1150 -91 751 415 
Q 353 922 353 1747 
Q 353 2572 751 3078 
Q 1150 3584 1784 3584 
Q 2172 3584 2448 3432 
Q 2725 3281 2906 2969 
L 2906 3500 
L 3481 3500 
L 3481 -1331 
L 2906 -1331 
L 2906 525 
z
" transform="scale(0.015625)"/>
       <path id="DejaVuSans-6e" d="M 3513 2113 
L 3513 0 
L 2938 0 
L 2938 2094 
Q 2938 2591 2744 2837 
Q 2550 3084 2163 3084 
Q 1697 3084 1428 2787 
Q 1159 2491 1159 1978 
L 1159 0 
L 581 0 
L 581 3500 
L 1159 3500 
L 1159 2956 
Q 1366 3272 1645 3428 
Q 1925 3584 2291 3584 
Q 2894 3584 3203 3211 
Q 3513 2838 3513 2113 
z
" transform="scale(0.015625)"/>
       <path id="DejaVuSans-63" d="M 3122 3366 
L 3122 2828 
Q 2878 2963 2633 3030 
Q 2388 3097 2138 3097 
Q 1578 3097 1268 2742 
Q 959 2388 959 1747 
Q 959 1106 1268 751 
Q 1578 397 2138 397 
Q 2388 397 2633 464 
Q 2878 531 3122 666 
L 3122 134 
Q 2881 22 2623 -34 
Q 2366 -91 2075 -91 
Q 1284 -91 818 406 
Q 353 903 353 1747 
Q 353 2603 823 3093 
Q 1294 3584 2113 3584 
Q 2378 3584 2631 3529 
Q 2884 3475 3122 3366 
z
" transform="scale(0.015625)"/>
       <path id="DejaVuSans-79" d="M 2059 -325 
Q 1816 -950 1584 -1140 
Q 1353 -1331 966 -1331 
L 506 -1331 
L 506 -850 
L 844 -850 
Q 1081 -850 1212 -737 
Q 1344 -625 1503 -206 
L 1606 56 
L 191 3500 
L 800 3500 
L 1894 763 
L 2988 3500 
L 3597 3500 
L 2059 -325 
z
" transform="scale(0.015625)"/>
      </defs>
      <use xlink:href="#DejaVuSans-46"/>
      <use xlink:href="#DejaVuSans-72" x="50.269531"/>
      <use xlink:href="#DejaVuSans-65" x="89.132812"/>
      <use xlink:href="#DejaVuSans-71" x="150.65625"/>
      <use xlink:href="#DejaVuSans-75" x="214.132812"/>
      <use xlink:href="#DejaVuSans-65" x="277.511719"/>
      <use xlink:href="#DejaVuSans-6e" x="339.035156"/>
      <use xlink:href="#DejaVuSans-63" x="402.414062"/>
      <use xlink:href="#DejaVuSans-79" x="457.394531"/>
     </g>
    </g>
   </g>
   <g id="patch_235">
    <path d="M 78.400625 368.654375 
L 78.400625 19.44 
" style="fill: none; stroke: #000000; stroke-width: 0.8; stroke-linejoin: miter; stroke-linecap: square"/>
   </g>
   <g id="patch_236">
    <path d="M 484.56 368.654375 
L 484.56 19.44 
" style="fill: none; stroke: #000000; stroke-width: 0.8; stroke-linejoin: miter; stroke-linecap: square"/>
   </g>
   <g id="patch_237">
    <path d="M 78.400625 368.654375 
L 484.56 368.654375 
" style="fill: none; stroke: #000000; stroke-width: 0.8; stroke-linejoin: miter; stroke-linecap: square"/>
   </g>
   <g id="patch_238">
    <path d="M 78.400625 19.44 
L 484.56 19.44 
" style="fill: none; stroke: #000000; stroke-width: 0.8; stroke-linejoin: miter; stroke-linecap: square"/>
   </g>
   <g id="legend_1">
    <g id="patch_239">
     <path d="M 346.4475 126.18 
L 473.36 126.18 
Q 476.56 126.18 476.56 122.98 
L 476.56 30.64 
Q 476.56 27.44 473.36 27.44 
L 346.4475 27.44 
Q 343.2475 27.44 343.2475 30.64 
L 343.2475 122.98 
Q 343.2475 126.18 346.4475 126.18 
z
" style="fill: #ffffff; opacity: 0.8; stroke: #cccccc; stroke-linejoin: miter"/>
    </g>
    <g id="patch_240">
     <path d="M 349.6475 45.9975 
L 381.6475 45.9975 
L 381.6475 34.7975 
L 349.6475 34.7975 
z
" style="fill: #4c72b0; fill-opacity: 0.5"/>
    </g>
    <g id="text_17">
     <!-- Feature 1 -->
     <g transform="translate(394.4475 45.9975) scale(0.16 -0.16)">
      <use xlink:href="#DejaVuSans-46"/>
      <use xlink:href="#DejaVuSans-65" x="52.019531"/>
      <use xlink:href="#DejaVuSans-61" x="113.542969"/>
      <use xlink:href="#DejaVuSans-74" x="174.822266"/>
      <use xlink:href="#DejaVuSans-75" x="214.03125"/>
      <use xlink:href="#DejaVuSans-72" x="277.410156"/>
      <use xlink:href="#DejaVuSans-65" x="316.273438"/>
      <use xlink:href="#DejaVuSans-20" x="377.796875"/>
      <use xlink:href="#DejaVuSans-31" x="409.583984"/>
     </g>
    </g>
    <g id="patch_241">
     <path d="M 349.6475 69.4825 
L 381.6475 69.4825 
L 381.6475 58.2825 
L 349.6475 58.2825 
z
" style="fill: #dd8452; fill-opacity: 0.5"/>
    </g>
    <g id="text_18">
     <!-- Feature 2 -->
     <g transform="translate(394.4475 69.4825) scale(0.16 -0.16)">
      <use xlink:href="#DejaVuSans-46"/>
      <use xlink:href="#DejaVuSans-65" x="52.019531"/>
      <use xlink:href="#DejaVuSans-61" x="113.542969"/>
      <use xlink:href="#DejaVuSans-74" x="174.822266"/>
      <use xlink:href="#DejaVuSans-75" x="214.03125"/>
      <use xlink:href="#DejaVuSans-72" x="277.410156"/>
      <use xlink:href="#DejaVuSans-65" x="316.273438"/>
      <use xlink:href="#DejaVuSans-20" x="377.796875"/>
      <use xlink:href="#DejaVuSans-32" x="409.583984"/>
     </g>
    </g>
    <g id="patch_242">
     <path d="M 349.6475 92.9675 
L 381.6475 92.9675 
L 381.6475 81.7675 
L 349.6475 81.7675 
z
" style="fill: #55a868; fill-opacity: 0.5"/>
    </g>
    <g id="text_19">
     <!-- Feature 3 -->
     <g transform="translate(394.4475 92.9675) scale(0.16 -0.16)">
      <use xlink:href="#DejaVuSans-46"/>
      <use xlink:href="#DejaVuSans-65" x="52.019531"/>
      <use xlink:href="#DejaVuSans-61" x="113.542969"/>
      <use xlink:href="#DejaVuSans-74" x="174.822266"/>
      <use xlink:href="#DejaVuSans-75" x="214.03125"/>
      <use xlink:href="#DejaVuSans-72" x="277.410156"/>
      <use xlink:href="#DejaVuSans-65" x="316.273438"/>
      <use xlink:href="#DejaVuSans-20" x="377.796875"/>
      <use xlink:href="#DejaVuSans-33" x="409.583984"/>
     </g>
    </g>
    <g id="patch_243">
     <path d="M 349.6475 116.4525 
L 381.6475 116.4525 
L 381.6475 105.2525 
L 349.6475 105.2525 
z
" style="fill: #c44e52; fill-opacity: 0.5"/>
    </g>
    <g id="text_20">
     <!-- Feature 4 -->
     <g transform="translate(394.4475 116.4525) scale(0.16 -0.16)">
      <use xlink:href="#DejaVuSans-46"/>
      <use xlink:href="#DejaVuSans-65" x="52.019531"/>
      <use xlink:href="#DejaVuSans-61" x="113.542969"/>
      <use xlink:href="#DejaVuSans-74" x="174.822266"/>
      <use xlink:href="#DejaVuSans-75" x="214.03125"/>
      <use xlink:href="#DejaVuSans-72" x="277.410156"/>
      <use xlink:href="#DejaVuSans-65" x="316.273438"/>
      <use xlink:href="#DejaVuSans-20" x="377.796875"/>
      <use xlink:href="#DejaVuSans-34" x="409.583984"/>
     </g>
    </g>
   </g>
  </g>
 </g>
 <defs>
  <clipPath id="p7ed986a421">
   <rect x="78.400625" y="19.44" width="406.159375" height="349.214375"/>
  </clipPath>
 </defs>
</svg>
